<svg width="87" height="43" viewBox="0 0 87 43" fill="none" xmlns="http://www.w3.org/2000/svg">
<rect x="76.9688" y="31.562" width="1.83071" height="3.66143" rx="0.915357" transform="rotate(-21.3875 76.9688 31.562)" fill="#5EC8D8"/>
<rect x="79.3711" y="37.699" width="1.83071" height="3.66143" rx="0.915357" transform="rotate(-21.3875 79.3711 37.699)" fill="#5EC8D8"/>
<rect x="75.4209" y="38.6565" width="1.83071" height="3.66143" rx="0.915357" transform="rotate(-111.387 75.4209 38.6565)" fill="#5EC8D8"/>
<rect x="81.2168" y="36.3867" width="1.83071" height="3.66143" rx="0.915357" transform="rotate(-111.387 81.2168 36.3867)" fill="#5EC8D8"/>
<path d="M3.98841 13.9594V10.8684H10.2203V7.07942H3.98841V4.18783H10.8435V0.348985H0V17.7983H10.9681V13.9594H3.98841Z" fill="black"/>
<path d="M30.4961 9.07362C30.4961 3.93855 26.4329 0 21.4225 0C16.4121 0 12.3489 3.93855 12.3489 9.07362C12.3489 14.2087 16.4121 18.1472 21.4225 18.1472C22.8932 18.1472 24.2892 17.7983 25.5106 17.2L27.3802 19.1693L30.2468 16.6267L28.5019 14.782C29.7483 13.2365 30.4961 11.2672 30.4961 9.07362ZM21.4225 14.2586C18.5808 14.2586 16.3373 12.1896 16.3373 9.07362C16.3373 5.95768 18.5808 3.8887 21.4225 3.8887C24.2642 3.8887 26.5077 5.95768 26.5077 9.07362C26.5077 10.1455 26.2335 11.0928 25.7848 11.8904L22.9929 8.92406L20.1263 11.4667L22.6439 14.1339C22.2451 14.2087 21.8463 14.2586 21.4225 14.2586Z" fill="black"/>
<path d="M39.3475 18.1472C43.1864 18.1472 46.078 15.9038 46.078 12.1646V0.348985H42.0896V11.8157C42.0896 13.1368 41.4664 14.2586 39.3475 14.2586C37.2287 14.2586 36.6055 13.1368 36.6055 11.8157V0.348985H32.6171V12.1646C32.6171 15.9038 35.5087 18.1472 39.3475 18.1472Z" fill="black"/>
<path d="M48.9544 0.348985V17.7983H52.9428V0.348985H48.9544Z" fill="black"/>
<path d="M67.6568 0.348985H54.6945V4.18783H59.1815V17.7983H63.1699V4.18783H67.6568V0.348985Z" fill="black"/>
<path d="M83.6114 0.348985H79.0746L75.7593 7.07942L72.4439 0.348985H67.9071L73.7651 11.0928V17.7983H77.7535V11.0928L83.6114 0.348985Z" fill="black"/>
<path d="M0.423768 42.7258H1.67015V24.5287H0.423768V42.7258Z" fill="black"/>
<path d="M16.4796 30.262V33.0788C15.4327 31.2093 13.5133 29.9878 11.1202 29.9878C7.5805 29.9878 4.66398 32.8046 4.66398 36.4939C4.66398 40.1832 7.5805 43 11.1202 43C13.5133 43 15.4327 41.7786 16.4796 39.909V42.7258H17.7509V30.262H16.4796ZM11.2199 41.8035C8.25355 41.8035 5.93529 39.4603 5.93529 36.4939C5.93529 33.5275 8.25355 31.1843 11.2199 31.1843C14.1863 31.1843 16.4796 33.5275 16.4796 36.4939C16.4796 39.4603 14.1863 41.8035 11.2199 41.8035Z" fill="black"/>
<path d="M28.1839 29.9878C25.7659 29.9878 23.8465 31.2342 22.8245 33.1536V25.2765H21.5781V42.7258H22.8245V39.8342C23.8465 41.7536 25.7659 43 28.1839 43C31.7485 43 34.6401 40.1832 34.6401 36.4939C34.6401 32.8046 31.7485 29.9878 28.1839 29.9878ZM28.1091 41.8035C25.1427 41.8035 22.8245 39.4603 22.8245 36.4939C22.8245 33.5275 25.1427 31.1843 28.1091 31.1843C31.0755 31.1843 33.3937 33.5275 33.3937 36.4939C33.3937 39.4603 31.0755 41.8035 28.1091 41.8035Z" fill="black"/>
</svg>
