<svg width="52" height="52" viewBox="0 0 52 52" fill="none" xmlns="http://www.w3.org/2000/svg">
<rect width="52" height="52" rx="26" fill="black"/>
<path d="M28.9402 19.19C29.3182 18.7543 29.6065 18.2482 29.7884 17.7007C29.9703 17.1533 30.0422 16.5753 30.0002 16C28.8395 16.0937 27.7622 16.6396 27.0002 17.52C26.6353 17.942 26.3587 18.4329 26.187 18.9636C26.0152 19.4944 25.9517 20.0542 26.0002 20.61C26.5663 20.6147 27.1259 20.4891 27.6358 20.2429C28.1456 19.9966 28.5919 19.6364 28.9402 19.19ZM31.4602 26.63C31.4669 25.8637 31.6687 25.1118 32.0466 24.4452C32.4245 23.7786 32.9661 23.2193 33.6202 22.82C33.2074 22.2252 32.6617 21.7348 32.0264 21.3877C31.3911 21.0405 30.6836 20.8462 29.9602 20.82C28.4002 20.66 26.9602 21.73 26.1302 21.73C25.3002 21.73 24.1302 20.84 22.8302 20.86C21.9803 20.888 21.1522 21.1358 20.4266 21.5792C19.701 22.0226 19.1028 22.6465 18.6902 23.39C16.9302 26.45 18.2402 31 20.0002 33.47C20.8002 34.68 21.8002 36.05 23.1202 36C24.4402 35.95 24.8702 35.18 26.4002 35.18C27.9302 35.18 28.4002 36 29.7002 35.97C31.0002 35.94 31.9202 34.73 32.7602 33.52C33.3552 32.6415 33.82 31.6816 34.1402 30.67C33.3476 30.332 32.6715 29.7693 32.1952 29.0513C31.7189 28.3333 31.4634 27.4916 31.4602 26.63Z" fill="#EEEFF2"/>
</svg>
