<svg width="375" height="468" viewBox="0 0 375 468" fill="none" xmlns="http://www.w3.org/2000/svg">
<path d="M211.48 100.116C211.48 100.116 169.256 109.073 160.299 155.135C151.343 201.198 187.169 233.188 238.351 231.907C238.351 231.907 310.005 234.466 331.757 280.529C353.509 326.592 408.529 313.796 422.604 267.733C436.679 221.669 417.485 148.736 357.348 121.866C297.21 94.9972 251.146 92.439 211.48 100.116Z" fill="white"/>
<path d="M263.941 295.885H106.558C99.4909 295.885 93.7627 290.157 93.7627 283.09V205.038C93.7627 197.972 99.4909 192.243 106.558 192.243H263.941C271.007 192.243 276.736 197.971 276.736 205.038V283.091C276.736 290.156 271.007 295.885 263.941 295.885Z" fill="#BFD9FF"/>
<path d="M274.948 303.132H95.5523C87.4978 303.132 80.967 296.601 80.967 288.547V199.579C80.967 191.525 87.4966 184.994 95.5523 184.994H274.947C283.001 184.994 289.532 191.523 289.532 199.579V288.547C289.532 296.602 283.001 303.132 274.948 303.132Z" fill="#5EC8D8"/>
<path d="M240.027 277.734C258.535 277.734 273.538 262.731 273.538 244.223C273.538 225.715 258.535 210.712 240.027 210.712C221.52 210.712 206.516 225.715 206.516 244.223C206.516 262.731 221.52 277.734 240.027 277.734Z" fill="white"/>
<path d="M240.292 257.799C249.112 257.799 256.263 250.649 256.263 241.829C256.263 233.008 249.112 225.858 240.292 225.858C231.472 225.858 224.321 233.008 224.321 241.829C224.321 250.649 231.472 257.799 240.292 257.799Z" fill="#7E2D2C"/>
<path d="M267.047 282.605C266.329 268.304 254.507 256.928 240.027 256.928C225.547 256.928 213.724 268.304 213.007 282.605H267.047Z" fill="#5EC8D8"/>
<path d="M240.027 269.705C244.87 269.705 248.795 265.779 248.795 260.937C248.795 256.094 244.87 252.168 240.027 252.168C235.184 252.168 231.259 256.094 231.259 260.937C231.259 265.779 235.184 269.705 240.027 269.705Z" fill="#FF7657"/>
<path d="M254.604 249.215C256.581 249.215 258.183 247.613 258.183 245.636C258.183 243.659 256.581 242.057 254.604 242.057C252.627 242.057 251.025 243.659 251.025 245.636C251.025 247.613 252.627 249.215 254.604 249.215Z" fill="#FF7657"/>
<path d="M224.779 249.215C226.756 249.215 228.358 247.613 228.358 245.636C228.358 243.659 226.756 242.057 224.779 242.057C222.802 242.057 221.2 243.659 221.2 245.636C221.2 247.613 222.802 249.215 224.779 249.215Z" fill="#FF7657"/>
<path d="M239.952 259.773C247.76 259.773 254.089 253.444 254.089 245.636C254.089 237.828 247.76 231.499 239.952 231.499C232.144 231.499 225.815 237.828 225.815 245.636C225.815 253.444 232.144 259.773 239.952 259.773Z" fill="#FF9677"/>
<path d="M240.428 245.247C246.842 247.429 253.323 245.432 254.903 240.787C256.483 236.142 252.563 230.608 246.149 228.426C239.734 226.245 233.253 228.241 231.673 232.886C230.094 237.531 234.013 243.065 240.428 245.247Z" fill="#7E2D2C"/>
<path d="M184.397 291.62H110.61C104.132 291.62 98.8811 286.369 98.8811 279.892C98.8811 273.414 104.132 268.162 110.61 268.162H184.396C190.873 268.162 196.124 273.413 196.124 279.892C196.125 286.368 190.874 291.62 184.397 291.62Z" fill="white"/>
<path d="M116.276 282.954L113.479 284.424C113.215 284.562 112.908 284.339 112.958 284.045L113.492 280.931C113.511 280.814 113.474 280.695 113.389 280.613L111.126 278.407C110.913 278.199 111.031 277.837 111.325 277.795L114.452 277.339C114.569 277.322 114.67 277.248 114.722 277.143L116.121 274.309C116.252 274.042 116.632 274.042 116.764 274.309L118.163 277.143C118.215 277.248 118.316 277.322 118.432 277.339L121.56 277.795C121.854 277.837 121.971 278.199 121.759 278.407L119.496 280.613C119.411 280.695 119.372 280.814 119.393 280.931L119.927 284.045C119.978 284.339 119.669 284.562 119.406 284.424L116.609 282.954C116.505 282.898 116.38 282.898 116.276 282.954Z" fill="#FFA402"/>
<path d="M131.855 282.954L129.057 284.424C128.794 284.562 128.487 284.339 128.536 284.045L129.071 280.931C129.091 280.814 129.052 280.695 128.967 280.613L126.704 278.407C126.492 278.199 126.608 277.837 126.903 277.795L130.031 277.339C130.148 277.322 130.248 277.248 130.302 277.143L131.7 274.309C131.832 274.042 132.212 274.042 132.344 274.309L133.741 277.143C133.794 277.248 133.894 277.322 134.012 277.339L137.14 277.795C137.434 277.837 137.551 278.199 137.339 278.407L135.076 280.613C134.991 280.695 134.952 280.814 134.973 280.931L135.507 284.045C135.558 284.339 135.249 284.562 134.986 284.424L132.189 282.954C132.084 282.898 131.959 282.898 131.855 282.954Z" fill="#FFA402"/>
<path d="M147.433 282.954L144.636 284.424C144.372 284.562 144.065 284.339 144.115 284.045L144.649 280.931C144.668 280.814 144.63 280.695 144.546 280.613L142.283 278.407C142.07 278.199 142.187 277.837 142.482 277.795L145.609 277.339C145.726 277.322 145.828 277.248 145.88 277.143L147.279 274.309C147.41 274.042 147.791 274.042 147.922 274.309L149.321 277.143C149.373 277.248 149.474 277.322 149.592 277.339L152.719 277.795C153.014 277.837 153.131 278.199 152.918 278.407L150.655 280.613C150.572 280.695 150.533 280.814 150.552 280.931L151.086 284.045C151.137 284.339 150.829 284.562 150.565 284.424L147.768 282.954C147.663 282.898 147.537 282.898 147.433 282.954Z" fill="#FFA402"/>
<path d="M163.011 282.954L160.214 284.424C159.951 284.562 159.643 284.339 159.693 284.045L160.227 280.931C160.247 280.814 160.208 280.695 160.124 280.613L157.861 278.407C157.649 278.199 157.765 277.837 158.06 277.795L161.188 277.339C161.304 277.322 161.406 277.248 161.459 277.143L162.857 274.309C162.988 274.042 163.37 274.042 163.501 274.309L164.899 277.143C164.952 277.248 165.052 277.322 165.17 277.339L168.298 277.795C168.592 277.837 168.709 278.199 168.497 278.407L166.234 280.613C166.149 280.695 166.11 280.814 166.13 280.931L166.665 284.045C166.714 284.339 166.407 284.562 166.144 284.424L163.346 282.954C163.242 282.898 163.117 282.898 163.011 282.954Z" fill="#FFA402"/>
<path d="M178.59 282.954L175.792 284.424C175.529 284.562 175.222 284.339 175.272 284.045L175.806 280.931C175.826 280.814 175.788 280.695 175.703 280.613L173.439 278.407C173.226 278.199 173.344 277.837 173.639 277.795L176.766 277.339C176.884 277.322 176.985 277.248 177.037 277.143L178.436 274.309C178.567 274.042 178.948 274.042 179.079 274.309L180.478 277.143C180.53 277.248 180.631 277.322 180.747 277.339L183.875 277.795C184.169 277.837 184.286 278.199 184.074 278.407L181.811 280.613C181.727 280.695 181.687 280.814 181.708 280.931L182.242 284.045C182.293 284.339 181.985 284.562 181.721 284.424L178.924 282.954C178.82 282.898 178.695 282.898 178.59 282.954Z" fill="#C2D4D9"/>
<path d="M106.132 221.246H159.872" stroke="white" stroke-width="4.2155" stroke-miterlimit="10" stroke-linecap="round" stroke-linejoin="round"/>
<path d="M106.132 252.381H174.801" stroke="white" stroke-width="4.2155" stroke-miterlimit="10" stroke-linecap="round" stroke-linejoin="round"/>
<path d="M106.132 236.173H129.589" stroke="white" stroke-width="4.2155" stroke-miterlimit="10" stroke-linecap="round" stroke-linejoin="round"/>
<path d="M142.385 236.173H190.154" stroke="white" stroke-width="4.2155" stroke-miterlimit="10" stroke-linecap="round" stroke-linejoin="round"/>
<path d="M231.633 200.879H264.582" stroke="#5EC8D8" stroke-width="4.2155" stroke-miterlimit="10" stroke-linecap="round" stroke-linejoin="round"/>
<path d="M118.074 184.885H176.933" stroke="#5EC8D8" stroke-width="1.0539" stroke-miterlimit="10" stroke-linecap="round" stroke-linejoin="round"/>
<path d="M197.726 184.885H219.158" stroke="#5EC8D8" stroke-width="1.0539" stroke-miterlimit="10" stroke-linecap="round" stroke-linejoin="round"/>
<path d="M191.008 302.922H257.545" stroke="#5EC8D8" stroke-width="1.0539" stroke-miterlimit="10" stroke-linecap="round" stroke-linejoin="round"/>
<path d="M289.106 222.951V237.026" stroke="#5EC8D8" stroke-width="1.0539" stroke-miterlimit="10" stroke-linecap="round" stroke-linejoin="round"/>
<path d="M80.968 240.011V281.384" stroke="#5EC8D8" stroke-width="1.0539" stroke-miterlimit="10" stroke-linecap="round" stroke-linejoin="round"/>
<path opacity="0.3" d="M260.553 416H107.447C100.573 416 95 410.363 95 403.408V326.592C95 319.637 100.573 314 107.447 314H260.553C267.427 314 273 319.637 273 326.592V403.408C273 410.364 267.427 416 260.553 416Z" fill="#5EC8D8"/>
<path opacity="0.3" d="M106.559 426.824V456.34C106.559 462.418 111.486 467.345 117.563 467.345H252.935C259.014 467.345 263.94 462.417 263.94 456.34V426.824H106.559Z" fill="#5EC8D8"/>
<path opacity="0.3" d="M271.618 175.611V146.095C271.618 140.017 266.691 135.089 260.613 135.089H111.594C105.516 135.089 100.588 140.017 100.588 146.095V175.611H271.618Z" fill="#5EC8D8"/>
<path d="M232.41 394.181C248.344 394.181 261.26 381.264 261.26 365.331C261.26 349.397 248.344 336.481 232.41 336.481C216.477 336.481 203.56 349.397 203.56 365.331C203.56 381.264 216.477 394.181 232.41 394.181Z" fill="white"/>
<path d="M232.638 377.018C240.232 377.018 246.387 370.862 246.387 363.269C246.387 355.676 240.232 349.52 232.638 349.52C225.045 349.52 218.89 355.676 218.89 363.269C218.89 370.862 225.045 377.018 232.638 377.018Z" fill="#5EC8D8"/>
<path d="M255.673 398.374C255.055 386.062 244.877 376.269 232.41 376.269C219.943 376.269 209.767 386.062 209.149 398.374H255.673Z" fill="#5EC8D8"/>
<path d="M232.41 387.268C236.579 387.268 239.958 383.888 239.958 379.719C239.958 375.551 236.579 372.171 232.41 372.171C228.241 372.171 224.862 375.551 224.862 379.719C224.862 383.888 228.241 387.268 232.41 387.268Z" fill="#5EC8D8"/>
<path d="M244.961 369.629C246.662 369.629 248.042 368.249 248.042 366.547C248.042 364.846 246.662 363.466 244.961 363.466C243.259 363.466 241.879 364.846 241.879 366.547C241.879 368.249 243.259 369.629 244.961 369.629Z" fill="#C9EBF7"/>
<path d="M219.282 369.629C220.984 369.629 222.363 368.249 222.363 366.547C222.363 364.846 220.984 363.466 219.282 363.466C217.58 363.466 216.2 364.846 216.2 366.547C216.2 368.249 217.58 369.629 219.282 369.629Z" fill="#C9EBF7"/>
<path d="M232.346 378.719C239.068 378.719 244.518 373.27 244.518 366.547C244.518 359.825 239.068 354.376 232.346 354.376C225.624 354.376 220.174 359.825 220.174 366.547C220.174 373.27 225.624 378.719 232.346 378.719Z" fill="#C9EBF7"/>
<path d="M232.764 366.204C238.287 368.083 243.867 366.364 245.227 362.366C246.587 358.367 243.212 353.603 237.689 351.724C232.167 349.846 226.587 351.564 225.227 355.563C223.867 359.562 227.241 364.326 232.764 366.204Z" fill="#5EC8D8"/>
<path d="M184.515 406.135H120.989C115.413 406.135 110.892 401.614 110.892 396.038C110.892 390.461 115.413 385.941 120.989 385.941H184.515C190.093 385.941 194.613 390.462 194.613 396.038C194.614 401.615 190.093 406.135 184.515 406.135Z" fill="#5EC8D8"/>
<path d="M125.868 398.674L123.459 399.941C123.232 400.061 122.968 399.867 123.011 399.615L123.472 396.933C123.489 396.833 123.456 396.731 123.383 396.659L121.434 394.76C121.251 394.583 121.353 394.271 121.605 394.233L124.298 393.842C124.399 393.828 124.487 393.764 124.531 393.672L125.736 391.233C125.849 391.003 126.177 391.003 126.291 391.233L127.495 393.672C127.54 393.763 127.626 393.828 127.727 393.842L130.42 394.233C130.673 394.269 130.775 394.582 130.591 394.76L128.643 396.659C128.57 396.731 128.537 396.833 128.554 396.933L129.014 399.615C129.058 399.867 128.792 400.06 128.566 399.941L126.158 398.674C126.066 398.627 125.958 398.627 125.868 398.674Z" fill="white"/>
<path d="M139.281 398.674L136.872 399.941C136.645 400.061 136.38 399.867 136.424 399.615L136.884 396.933C136.901 396.833 136.868 396.731 136.796 396.659L134.847 394.76C134.664 394.583 134.766 394.271 135.018 394.233L137.711 393.842C137.812 393.828 137.899 393.764 137.944 393.672L139.148 391.233C139.261 391.003 139.589 391.003 139.703 391.233L140.907 393.672C140.953 393.763 141.039 393.828 141.14 393.842L143.833 394.233C144.085 394.269 144.187 394.582 144.004 394.76L142.055 396.659C141.982 396.731 141.949 396.833 141.966 396.933L142.427 399.615C142.47 399.867 142.204 400.06 141.979 399.941L139.571 398.674C139.478 398.627 139.371 398.627 139.281 398.674Z" fill="white"/>
<path d="M152.693 398.674L150.284 399.941C150.057 400.061 149.792 399.867 149.836 399.615L150.296 396.933C150.313 396.833 150.281 396.731 150.208 396.659L148.26 394.76C148.077 394.583 148.178 394.271 148.431 394.233L151.124 393.842C151.225 393.828 151.313 393.764 151.357 393.672L152.562 391.233C152.675 391.003 153.003 391.003 153.115 391.233L154.32 393.672C154.365 393.763 154.451 393.828 154.552 393.842L157.245 394.233C157.498 394.269 157.599 394.582 157.416 394.76L155.467 396.659C155.394 396.731 155.362 396.833 155.379 396.933L155.839 399.615C155.883 399.867 155.617 400.06 155.391 399.941L152.983 398.674C152.89 398.627 152.782 398.627 152.693 398.674Z" fill="white"/>
<path d="M166.104 398.674L163.697 399.941C163.47 400.061 163.205 399.867 163.249 399.615L163.709 396.933C163.726 396.833 163.693 396.731 163.62 396.659L161.673 394.76C161.489 394.583 161.59 394.271 161.844 394.233L164.536 393.842C164.636 393.828 164.724 393.764 164.769 393.672L165.973 391.233C166.086 391.003 166.414 391.003 166.527 391.233L167.731 393.672C167.776 393.763 167.864 393.828 167.963 393.842L170.656 394.233C170.909 394.269 171.011 394.582 170.827 394.76L168.879 396.659C168.806 396.731 168.773 396.833 168.79 396.933L169.25 399.615C169.294 399.867 169.028 400.06 168.802 399.941L166.395 398.674C166.302 398.627 166.194 398.627 166.104 398.674Z" fill="white"/>
<path d="M179.517 398.674L177.109 399.941C176.882 400.061 176.617 399.867 176.66 399.615L177.12 396.933C177.137 396.833 177.104 396.731 177.031 396.659L175.083 394.76C174.899 394.583 175.001 394.271 175.255 394.233L177.947 393.842C178.048 393.828 178.135 393.764 178.18 393.672L179.384 391.233C179.497 391.003 179.825 391.003 179.939 391.233L181.144 393.672C181.188 393.763 181.275 393.828 181.375 393.842L184.068 394.233C184.321 394.269 184.423 394.582 184.24 394.76L182.291 396.659C182.218 396.731 182.185 396.833 182.202 396.933L182.661 399.615C182.705 399.867 182.439 400.06 182.213 399.941L179.806 398.674C179.715 398.627 179.608 398.627 179.517 398.674Z" fill="white"/>
<path d="M117.135 345.548H163.401" stroke="white" stroke-width="3.6293" stroke-miterlimit="10" stroke-linecap="round" stroke-linejoin="round"/>
<path d="M117.135 372.353H176.254" stroke="white" stroke-width="3.6293" stroke-miterlimit="10" stroke-linecap="round" stroke-linejoin="round"/>
<path d="M117.135 358.399H137.329" stroke="white" stroke-width="3.6293" stroke-miterlimit="10" stroke-linecap="round" stroke-linejoin="round"/>
<path d="M148.346 358.399H189.473" stroke="white" stroke-width="3.6293" stroke-miterlimit="10" stroke-linecap="round" stroke-linejoin="round"/>
<path d="M225.182 328.015H253.55" stroke="#5EC8D8" stroke-width="3.6293" stroke-miterlimit="10" stroke-linecap="round" stroke-linejoin="round"/>
<path d="M65.6133 240.865V229.349" stroke="#5EC8D8" stroke-width="1.0539" stroke-miterlimit="10" stroke-linecap="round" stroke-linejoin="round"/>
<path d="M65.6133 221.672V190.323" stroke="#5EC8D8" stroke-width="1.0539" stroke-miterlimit="10" stroke-linecap="round" stroke-linejoin="round"/>
<path d="M65.827 185.845C67.8293 185.845 69.4524 184.222 69.4524 182.22C69.4524 180.218 67.8293 178.595 65.827 178.595C63.8248 178.595 62.2017 180.218 62.2017 182.22C62.2017 184.222 63.8248 185.845 65.827 185.845Z" stroke="#5EC8D8" stroke-width="1.0539" stroke-miterlimit="10" stroke-linecap="round" stroke-linejoin="round"/>
<path d="M281.002 385.879H267.354V399.527H281.002V385.879Z" stroke="#5EC8D8" stroke-width="1.0539" stroke-miterlimit="10" stroke-linecap="round" stroke-linejoin="round"/>
<path d="M286.972 414.882H278.442V423.412H286.972V414.882Z" stroke="#5EC8D8" stroke-width="1.0539" stroke-miterlimit="10" stroke-linecap="round" stroke-linejoin="round"/>
<path d="M106.558 426.824H217.878" stroke="#5EC8D8" stroke-width="1.0539" stroke-miterlimit="10" stroke-linecap="round" stroke-linejoin="round"/>
<path d="M305.313 167.505C307.669 167.505 309.578 165.595 309.578 163.24C309.578 160.884 307.669 158.974 305.313 158.974C302.957 158.974 301.048 160.884 301.048 163.24C301.048 165.595 302.957 167.505 305.313 167.505Z" fill="#5EC8D8"/>
<path d="M87.1519 447.724C89.5076 447.724 91.4172 445.814 91.4172 443.459C91.4172 441.103 89.5076 439.193 87.1519 439.193C84.7963 439.193 82.8867 441.103 82.8867 443.459C82.8867 445.814 84.7963 447.724 87.1519 447.724Z" fill="#5EC8D8"/>
<path d="M40.8753 186.272C43.231 186.272 45.1406 184.362 45.1406 182.006C45.1406 179.651 43.231 177.741 40.8753 177.741C38.5197 177.741 36.6101 179.651 36.6101 182.006C36.6101 184.362 38.5197 186.272 40.8753 186.272Z" fill="#5EC8D8"/>
<path d="M95.6821 461.584C96.5062 461.584 97.1743 460.916 97.1743 460.092C97.1743 459.268 96.5062 458.6 95.6821 458.6C94.858 458.6 94.1899 459.268 94.1899 460.092C94.1899 460.916 94.858 461.584 95.6821 461.584Z" fill="#5EC8D8"/>
<path d="M300.834 194.162C304.839 194.162 308.085 190.916 308.085 186.911C308.085 182.907 304.839 179.661 300.834 179.661C296.83 179.661 293.583 182.907 293.583 186.911C293.583 190.916 296.83 194.162 300.834 194.162Z" fill="#5EC8D8"/>
<path d="M173.415 120.589H209.401" stroke="#5EC8D8" stroke-width="3.1616" stroke-linecap="round" stroke-linejoin="round"/>
<path d="M240.909 448.789H278.016" stroke="#5EC8D8" stroke-width="3.1616" stroke-miterlimit="10" stroke-linecap="round" stroke-linejoin="round"/>
<path d="M131.509 157.695C142.462 157.695 151.342 148.815 151.342 137.862C151.342 126.909 142.462 118.029 131.509 118.029C120.555 118.029 111.676 126.909 111.676 137.862C111.676 148.815 120.555 157.695 131.509 157.695Z" fill="#5EC8D8"/>
<path d="M123.832 139.142L129.589 144.899L140.786 133.704" stroke="white" stroke-width="4.2155" stroke-miterlimit="10" stroke-linecap="round" stroke-linejoin="round"/>
</svg>
