<svg width="375" height="388" viewBox="0 0 375 388" fill="none" xmlns="http://www.w3.org/2000/svg">
<path d="M180.951 387.539C199.595 387.539 214.71 383.263 214.71 377.988C214.71 372.713 199.595 368.436 180.951 368.436C162.306 368.436 147.192 372.713 147.192 377.988C147.192 383.263 162.306 387.539 180.951 387.539Z" fill="white"/>
<path d="M69.109 371.423C112.233 371.423 147.192 367.146 147.192 361.871C147.192 356.596 112.233 352.32 69.109 352.32C25.9851 352.32 -8.97363 356.596 -8.97363 361.871C-8.97363 367.146 25.9851 371.423 69.109 371.423Z" fill="white"/>
<path d="M271.087 371.423C293.404 371.423 311.495 367.146 311.495 361.871C311.495 356.596 293.404 352.32 271.087 352.32C248.769 352.32 230.678 356.596 230.678 361.871C230.678 367.146 248.769 371.423 271.087 371.423Z" fill="white"/>
<path d="M130.722 83.2695C130.654 83.2695 130.587 83.2392 130.542 83.1809C130.465 83.0817 130.484 82.9391 130.583 82.8626C130.612 82.8398 133.553 80.6263 137.619 82.597C137.732 82.6518 137.779 82.7876 137.724 82.9007C137.67 83.0138 137.533 83.0608 137.42 83.006C133.615 81.1613 130.971 83.1373 130.861 83.2223C130.819 83.2544 130.771 83.2695 130.722 83.2695Z" fill="#3797DB"/>
<path d="M195.002 319.458C111.435 275.787 82.9409 230.531 73.8699 199.801H127.545C127.24 204.624 125.809 209.354 123.385 213.537C122.193 215.503 121.558 217.781 121.558 220.109C121.558 227.128 127.268 232.837 134.286 232.837C141.304 232.837 147.014 227.128 147.014 220.109C147.014 217.781 146.379 215.503 145.179 213.521C142.762 209.353 141.332 204.624 141.027 199.801H195.003V249.805L195.992 249.717C200.78 249.29 205.508 247.791 209.665 245.38C211.377 244.342 213.33 243.798 215.326 243.798C221.342 243.798 226.236 248.693 226.236 254.708C226.236 260.723 221.342 265.617 215.326 265.617C213.33 265.617 211.377 265.073 209.68 264.045C205.508 261.625 200.78 260.126 195.992 259.699L195.003 259.61V319.458H195.002Z" fill="#5EC8D8"/>
<path d="M196.822 261.616C201.046 262.125 205.056 263.467 208.754 265.611C210.72 266.802 212.998 267.437 215.327 267.437C222.346 267.437 228.055 261.727 228.055 254.709C228.055 247.691 222.346 241.981 215.327 241.981C212.998 241.981 210.72 242.616 208.738 243.817C205.055 245.952 201.047 247.293 196.822 247.803V199.802H260.378L260.407 198.923C260.614 192.708 259.074 186.581 255.957 181.205C254.92 179.492 254.376 177.54 254.376 175.544C254.376 169.529 259.27 164.635 265.285 164.635C271.301 164.635 276.195 169.529 276.195 175.544C276.195 177.54 275.651 179.492 274.622 181.189C271.496 186.582 269.957 192.709 270.164 198.923L270.193 199.802H317.953C308.882 230.532 280.388 275.788 196.821 319.458V261.616H196.822Z" fill="#5EC8D8"/>
<path d="M196.594 319.833V261.359L196.848 261.389C201.102 261.902 205.146 263.256 208.868 265.413C210.807 266.589 213.039 267.209 215.326 267.209C222.219 267.209 227.827 261.601 227.827 254.708C227.827 247.815 222.219 242.207 215.326 242.207C213.04 242.207 210.802 242.831 208.855 244.011C205.141 246.164 201.102 247.515 196.848 248.027L196.594 248.058V199.574H260.158L260.179 198.915C260.384 192.743 258.856 186.659 255.76 181.318C254.706 179.579 254.149 177.581 254.149 175.544C254.149 169.403 259.144 164.407 265.285 164.407C271.425 164.407 276.422 169.403 276.422 175.544C276.422 177.581 275.867 179.573 274.817 181.307C271.717 186.654 270.186 192.744 270.391 198.915L270.412 199.574H318.257L318.171 199.866C309.186 230.306 280.858 275.798 196.926 319.659L196.594 319.833ZM197.048 261.872V319.082C280.311 275.489 308.606 230.342 317.648 200.029H269.973L269.936 198.93C269.728 192.674 271.281 186.5 274.426 181.075C275.435 179.409 275.967 177.498 275.967 175.544C275.967 169.653 271.175 164.862 265.285 164.862C259.395 164.862 254.603 169.653 254.603 175.544C254.603 177.498 255.138 179.415 256.151 181.086C259.292 186.504 260.842 192.673 260.634 198.93L260.597 200.029H197.048V247.545C201.147 247.017 205.04 245.697 208.623 243.62C210.637 242.399 212.956 241.753 215.326 241.753C222.47 241.753 228.281 247.565 228.281 254.708C228.281 261.852 222.47 267.663 215.326 267.663C212.956 267.663 210.643 267.021 208.636 265.804C205.046 263.723 201.147 262.4 197.048 261.872Z" fill="#96D9C9"/>
<path d="M134.286 231.019C128.271 231.019 123.377 226.125 123.377 220.109C123.377 218.114 123.92 216.161 124.949 214.464C127.69 209.737 129.229 204.368 129.408 198.922L129.439 197.983H73.3511C70.9908 189.423 69.7944 180.817 69.7944 172.392C69.7944 152.814 75.9913 134.507 87.2438 120.842C98.8321 106.769 114.868 99.0191 132.398 99.0191C153.893 99.0191 169.797 107.979 179.353 115.495C188.802 122.927 194.087 130.454 195.003 131.811V154.936C191.158 154.339 187.502 153.046 184.122 151.087C182.155 149.895 179.877 149.26 177.549 149.26C170.531 149.26 164.821 154.97 164.821 161.988C164.821 169.006 170.531 174.716 177.549 174.716C179.878 174.716 182.155 174.081 184.137 172.881C187.503 170.929 191.158 169.637 195.003 169.04V197.983H139.133L139.164 198.922C139.343 204.368 140.882 209.737 143.614 214.45C144.652 216.162 145.195 218.114 145.195 220.11C145.196 226.125 140.302 231.019 134.286 231.019Z" fill="#5EC8D8"/>
<path d="M132.698 94.1815C130.132 94.5963 130.284 95.0139 129.954 95.058C129.563 95.1103 124.931 92.7907 124.931 92.7907C124.931 92.7907 111.231 86.0481 110.505 85.6573L100.617 73.252L92.9956 76.7566C92.9956 76.7566 104.117 89.9455 104.82 90.5267C105.524 91.1078 125.167 97.9762 126.875 98.6386C126.875 98.6386 128.597 100.208 129.712 101.156C130.827 102.104 132.317 102.48 132.673 102.696C132.725 102.728 133.954 103.376 135.691 103.752C137.188 104.077 135.941 103.063 135.941 103.063C135.941 103.063 133.293 101.948 133.423 101.747C133.523 101.591 134.931 102.289 136.583 102.666C137.008 102.762 137.428 102.856 137.814 102.94C138.828 103.158 139.273 102.58 138.254 102.177C137.894 102.035 137.291 101.814 136.836 101.719C136.345 101.617 135.932 101.36 135.534 101.209C134.745 100.909 134.166 100.701 134.197 100.674C134.237 100.639 134.126 100.465 134.581 100.554C135.127 100.66 136.229 101.15 137.047 101.242C137.511 101.295 138.472 101.465 138.472 101.465C138.472 101.465 140.171 101.627 140.183 101.389C140.208 100.87 139.162 100.58 138.519 100.593C138.114 100.388 137.098 100.238 137.098 100.238C137.098 100.238 135.126 99.4624 135.241 99.1716C135.287 99.0552 136.48 99.2342 137.746 99.3205C139.085 99.4119 140.055 99.4114 140.126 99.1531C140.24 98.7429 139.174 98.5876 139.174 98.5876C139.174 98.5876 138.235 98.4508 137.927 98.3811C137.566 98.2991 136.508 97.9686 136.508 97.9686C136.508 97.9686 132.882 96.6407 133.013 96.3739C133.144 96.107 133.743 95.5483 133.999 95.5501C134.254 95.5513 134.712 95.8056 134.967 95.8073C135.223 95.8086 135.773 95.7596 135.811 95.4387C135.849 95.1179 134.43 94.4539 134.43 94.4539C134.43 94.4539 133.439 94.0616 132.698 94.1815Z" fill="#EFAC7F"/>
<path d="M107.498 80.9353C107.498 80.9353 105.031 83.1701 104.005 83.906C103.152 84.5172 98.9946 86.5136 98.9946 86.5136C98.9946 86.5136 94.8593 80.1994 93.051 77.0326C90.8571 73.1909 89.3378 67.4778 89.8564 67.3231C91.3118 66.8883 93.3143 66.6225 95.1633 67.469C101.562 70.397 107.498 80.9353 107.498 80.9353Z" fill="#A7E5EE"/>
<path d="M130.302 97.4813C131.4 97.6543 132.523 97.4463 133.009 96.4443C133.118 97.6326 131.312 98.2223 130.302 97.4813Z" fill="#FE875E"/>
<path d="M67.1175 177.233C67.1175 177.233 66.8438 182.068 66.8423 182.077C66.7416 182.691 66.3455 184.208 66.3455 184.766C66.3455 186.862 75.6722 182.986 73.5821 182.057C73.3931 181.973 72.4019 181.337 72.3398 180.624C72.2439 179.525 72.0005 177.301 72.0005 177.301L67.1175 177.233Z" fill="#EFAC7F"/>
<path d="M73.559 182.038C73.559 182.038 71.3692 182.679 70.2478 182.839C69.1261 183 67.6475 181.65 66.8542 182.015C65.9812 182.416 66.0153 186.028 66.0153 186.028C66.0153 186.028 77.7581 187.056 81.06 185.993C82.3683 185.571 78.0356 183.531 73.559 182.038Z" fill="#66676C"/>
<path d="M52.1272 176.942C52.1272 176.942 51.8538 181.776 51.8523 181.787C51.7518 182.4 51.3555 183.917 51.3555 184.475C51.3555 186.571 60.6823 182.695 58.5922 181.766C58.4028 181.682 57.1178 180.571 57.0557 179.858C56.9598 178.759 57.0105 177.01 57.0105 177.01L52.1272 176.942Z" fill="#EFAC7F"/>
<path d="M58.5687 181.746C58.5687 181.746 56.3788 182.388 55.2574 182.548C54.136 182.708 52.6574 181.358 51.8641 181.723C50.9911 182.124 50.9563 185.737 50.9563 185.737C50.9563 185.737 62.6153 186.214 66.0699 185.701C67.4294 185.499 63.0455 183.24 58.5687 181.746Z" fill="#66676C"/>
<path d="M54.2393 100.685C54.2393 100.685 52.6587 108.84 53.3029 115.024C53.947 121.207 53.9977 143.174 53.9977 143.174L51.5398 178.321L57.3723 178.456C57.3723 178.456 64.2884 143.327 64.1594 144.228C64.0306 145.131 66.4785 119.493 66.4785 119.493L58.2334 99.9118L54.2393 100.685Z" fill="black"/>
<path d="M56.4506 95.4181C56.4506 95.4181 49.2902 102.939 51.9536 111.154C53.0235 114.453 63.0032 145.975 63.1322 148.552C63.2609 151.128 66.507 179.607 66.507 179.607L73.2891 179.403L74.7563 147.741L72.818 105.079L68.7012 97.8843L56.4506 95.4181Z" fill="#66676C"/>
<path d="M99.9252 71.0266C97.5803 68.418 92.4767 64.619 92.4767 64.619C92.4767 64.619 89.4366 62.0293 88.1968 61.6032C86.3727 60.9761 83.2481 59.303 78.7288 66.1327C75.4946 71.0203 55.0867 96.3274 51.7363 97.1792L73.613 107.615C74.2121 102.631 85.0249 93.2141 86.5808 91.4573C90.0584 87.53 102.145 73.4964 99.9252 71.0266Z" fill="#A7E5EE"/>
<path d="M98.9054 60.3364L92.0906 64.3144C92.0906 64.3144 91.8987 70.1146 94.1266 71.6212C95.9958 72.8855 97.4187 69.8515 97.4187 69.8515C97.4187 69.8515 99.9529 66.3497 101.878 65.259C103.803 64.1684 98.9054 60.3364 98.9054 60.3364Z" fill="#EFAC7F"/>
<path d="M97.7618 62.8892C98.0183 64.0992 98.6116 65.849 99.5306 67.29C100.281 66.4801 101.125 65.6854 101.877 65.259C102.766 64.7559 102.2 63.6688 101.335 62.6435C100.112 61.3742 98.9052 60.3361 98.9052 60.3361L97.5955 61.1005C97.5114 61.5961 97.6765 62.4863 97.7618 62.8892Z" fill="#D19369"/>
<path d="M102.455 50.3666C102.34 50.2252 96.7381 57.1784 97.4289 60.4399C98.1196 63.7011 101.506 66.6776 103.86 65.8591C106.463 64.9538 111.304 56.7679 109.568 52.7937C107.832 48.8195 102.455 50.3666 102.455 50.3666Z" fill="#EFAC7F"/>
<path d="M108.589 48.1735C106.147 46.8188 102.163 46.43 99.1868 47.9841C95.5271 49.8945 94.6938 54.7015 95.8394 57.6335C96.9851 60.5656 95.673 62.223 95.673 62.223L97.6142 61.0925C97.6142 61.0925 98.7477 59.3278 98.8959 57.9213C99.0439 56.5147 101.102 56.7638 102.106 56.1259C102.88 55.6346 103.867 54.0385 105.119 53.2102C105.119 53.2102 108.27 52.8247 109.82 53.6919C112.462 55.1703 112.087 50.1136 108.589 48.1735Z" fill="#5E2E0D"/>
<path d="M119.408 104.421C116.732 104.098 116.736 104.313 116.394 104.262C115.989 104.203 111.829 100.633 111.829 100.633C111.829 100.633 99.4986 90.19 98.8523 89.6035L92.0867 74.6552L83.1553 75.9809C83.1553 75.9809 91.4801 93.5545 92.0622 94.3194C92.6444 95.0843 110.935 105.748 112.511 106.876C112.511 106.876 113.904 108.892 114.82 110.13C115.736 111.369 117.155 112.157 117.466 112.468C117.512 112.514 118.609 113.492 120.277 114.35C121.714 115.091 120.679 113.75 120.679 113.75C120.679 113.75 118.254 111.915 118.429 111.756C118.564 111.633 119.83 112.711 121.412 113.545C121.819 113.76 122.221 113.971 122.592 114.161C123.566 114.66 124.141 114.223 123.203 113.543C122.871 113.303 122.311 112.916 121.874 112.696C121.401 112.457 121.041 112.09 120.674 111.83C119.944 111.315 119.446 110.978 119.483 110.961C119.532 110.938 119.417 110.708 119.856 110.922C120.383 111.181 121.386 111.97 122.19 112.292C122.646 112.474 123.576 112.911 123.576 112.911C123.576 112.911 124.95 113.087 125.002 113.008C125.282 112.579 124.465 112.245 123.814 112.076C123.451 111.761 122.46 111.328 122.46 111.328C122.46 111.328 120.643 110.015 120.822 109.764C120.89 109.668 121.961 110.397 123.271 110.886C124.771 111.447 125.491 111.142 125.624 110.902C125.828 110.534 124.912 110.309 124.912 110.309C124.912 110.309 123.654 110.005 123.36 109.85C123.014 109.668 118.998 106.632 119.188 106.41C119.378 106.187 119.997 106.185 120.255 106.259C120.512 106.333 120.967 106.517 121.225 106.591C121.482 106.664 121.932 106.366 122.041 106.065C122.15 105.764 121.187 105.216 121.187 105.216C121.187 105.216 120.181 104.514 119.408 104.421Z" fill="#EFAC7F"/>
<path d="M84.5733 83.2463C84.5733 83.2463 87.1428 82.4312 88.7911 81.6788C89.8948 81.1749 94.7097 78.7857 94.7097 78.7857C94.7097 78.7857 92.634 70.0542 91.2306 66.9143C86.0807 55.3924 80.2277 63.3385 79.4338 65.1908C77.6577 69.3339 84.5733 83.2463 84.5733 83.2463Z" fill="#A7E5EE"/>
<path d="M271.964 197.983C271.934 192.413 273.387 186.945 276.187 182.116C277.378 180.15 278.013 177.872 278.013 175.544C278.013 168.525 272.304 162.816 265.285 162.816C258.267 162.816 252.557 168.525 252.557 175.544C252.557 177.872 253.191 180.15 254.392 182.131C257.184 186.945 258.635 192.412 258.606 197.983H196.821V166.968L195.801 167.093C191.337 167.639 187.1 169.06 183.209 171.316C181.497 172.353 179.545 172.897 177.549 172.897C171.533 172.897 166.639 168.003 166.639 161.988C166.639 155.972 171.533 151.078 177.549 151.078C179.545 151.078 181.497 151.622 183.194 152.651C187.1 154.915 191.337 156.336 195.801 156.883L196.821 157.007V131.811C197.735 130.454 203.021 122.927 212.47 115.495C222.026 107.979 237.929 99.0188 259.424 99.0188C276.955 99.0188 292.991 106.769 304.579 120.842C315.831 134.506 322.028 152.814 322.028 172.392C322.028 180.817 320.832 189.423 318.472 197.983H271.964Z" fill="#5EC8D8"/>
<path d="M318.865 238.336H300.351C299.433 238.336 298.69 237.592 298.69 236.675C298.69 235.758 299.433 235.015 300.351 235.015H318.865C319.783 235.015 320.526 235.758 320.526 236.675C320.526 237.592 319.783 238.336 318.865 238.336Z" fill="#FBD388"/>
<path d="M320.684 240.956H298.533C297.615 240.956 296.872 240.213 296.872 239.296C296.872 238.379 297.615 237.635 298.533 237.635H320.684C321.602 237.635 322.345 238.379 322.345 239.296C322.345 240.213 321.602 240.956 320.684 240.956Z" fill="#FAAD19"/>
<path d="M255.732 351.464C255.732 351.464 254.026 353.151 253.988 353.769C253.948 354.388 253.837 361.02 254.532 361.638C255.228 362.257 257.274 362.696 256.616 363.392C256.119 363.918 252.297 363.806 249.763 363.665C249.024 363.624 248.096 357.643 247.803 356.764C247.378 355.487 245.846 352.709 246.232 351.819C246.42 351.385 247.821 350.397 249.09 349.566C250.426 348.691 251.705 346.743 251.705 346.743L255.732 351.464Z" fill="#EFAC7F"/>
<path d="M278.542 355.607C278.542 355.607 277.016 359.977 277.015 359.987C276.901 360.68 276.454 362.391 276.454 363.019C276.454 365.384 286.974 361.013 284.616 359.965C284.402 359.87 283.733 359.113 283.663 358.308C283.555 357.069 284.549 355.513 284.549 355.513L278.542 355.607Z" fill="#EFAC7F"/>
<path d="M293.06 272.646L296.868 282.508C296.868 282.508 299.352 306.046 297.906 320.136C297.301 326.029 284.2 357.574 284.2 357.574L277.694 356.644L286.409 319.289L283.202 305.004L278.664 276.767L293.06 272.646Z" fill="black"/>
<path d="M275.119 273.16L271.851 284.142L266.882 317.29L250.077 348.297C250.077 348.297 252.604 352.177 255.317 352.787L279.17 321.448L292.097 282.215L291.643 273.499L275.119 273.16Z" fill="#66676C"/>
<path d="M325.277 254.876C323.32 255.762 323.521 256.129 323.267 256.234C322.967 256.358 318.849 255.049 318.849 255.049C318.849 255.049 306.693 251.289 306.042 251.058L295.826 241.195L290.45 245.983C290.45 245.983 301.794 256.352 302.463 256.768C303.132 257.183 320.028 259.921 321.51 260.222C321.51 260.222 323.176 261.379 324.241 262.064C325.307 262.749 326.561 262.818 326.884 262.955C326.932 262.975 328.031 263.353 329.481 263.376C330.731 263.396 329.547 262.674 329.547 262.674C329.547 262.674 327.233 262.126 327.298 261.91C327.348 261.744 328.598 262.135 329.98 262.174C330.336 262.184 330.687 262.193 331.009 262.198C331.855 262.211 332.098 261.576 331.213 261.39C330.9 261.324 330.379 261.231 330 261.228C329.591 261.226 329.214 261.061 328.87 260.995C328.187 260.863 327.687 260.776 327.707 260.745C327.732 260.704 327.611 260.56 327.988 260.557C328.442 260.552 329.41 260.805 330.077 260.736C330.455 260.696 331.249 260.673 331.249 260.673C331.249 260.673 332.532 260.462 332.54 260.371C332.583 259.872 331.627 259.701 331.12 259.838C330.76 259.72 329.924 259.774 329.924 259.774C329.924 259.774 328.213 259.417 328.247 259.12C328.276 258.875 332.504 258.759 332.518 258.256C332.529 257.846 331.256 257.81 331.256 257.81C331.256 257.81 330.485 257.861 330.227 257.854C329.925 257.845 329.023 257.735 329.023 257.735C329.023 257.735 325.893 257.173 325.945 256.895C325.998 256.616 326.366 255.971 326.57 255.924C326.773 255.876 327.184 256.029 327.387 255.982C327.591 255.934 327.82 255.657 327.79 255.346C327.759 255.035 326.702 254.801 326.702 254.801C326.702 254.801 325.841 254.62 325.277 254.876Z" fill="#F8A492"/>
<path d="M299.499 243.698L294.386 250.644C294.386 250.644 289.866 245.227 287.834 242.506C285.368 239.205 282.666 234.636 283.066 234.39C284.195 233.693 285.595 232.957 287.244 233.385C292.948 234.868 299.499 243.698 299.499 243.698Z" fill="#A7E5EE"/>
<path d="M249.173 349.523C249.173 349.523 252.765 360.522 254.304 361.064C254.712 361.207 257.011 361.79 257.38 362.668C257.389 362.691 257.397 362.717 257.404 362.747C257.523 363.303 257.055 363.817 256.486 363.817H249.189C249.189 363.817 248.152 358.875 247.743 356.704C247.743 356.704 245.575 351.398 245.816 350.916C246.056 350.434 249.173 349.523 249.173 349.523Z" fill="#66676C"/>
<path d="M275.857 363.8L277.031 359.943C277.031 359.943 279.591 361.027 280.856 360.847C282.121 360.666 284.59 359.943 284.59 359.943C289.639 361.627 293.776 362.444 293.023 363.8H275.857Z" fill="#66676C"/>
<path d="M323.717 258.24C324.654 258.214 325.4 257.804 325.945 256.894C325.746 258.16 324.543 258.688 323.717 258.24Z" fill="#FE875E"/>
<path d="M276.424 233.177C276.424 233.177 270.321 233.822 268.279 234.537C266.575 235.134 264.266 240.706 264.266 240.706C264.266 240.706 273.515 267.442 273.152 272.222C272.789 277.003 271.76 284.082 271.76 284.082C271.76 284.082 289.973 285.232 296.872 282.509C296.872 282.509 294.693 271.678 294.693 268.834C294.693 265.99 293.47 237.564 292.599 236.075C291.728 234.586 289.973 233.739 286.645 233.013C283.318 232.287 276.424 233.177 276.424 233.177Z" fill="#A7E5EE"/>
<path d="M277.639 225.221L276.424 233.177C276.424 233.177 280.079 237.391 282.727 236.57C284.95 235.88 284.366 232.757 284.366 232.757C284.366 232.757 283.154 228.256 283.518 226.003C283.881 223.751 277.639 225.221 277.639 225.221Z" fill="#EFAC7F"/>
<path d="M283.518 226.003C283.881 223.751 277.639 225.221 277.639 225.221L277.539 225.881C277.721 226.322 277.944 226.7 278.215 226.99C279.609 228.48 281.789 229.375 283.673 229.443C283.484 228.229 283.369 226.927 283.518 226.003Z" fill="#D19369"/>
<path d="M276.615 213.966C276.439 213.903 275.201 223.027 277.55 225.537C279.898 228.048 284.475 228.87 286.116 226.893C287.931 224.706 287.84 214.899 284.189 212.316C280.536 209.733 276.615 213.966 276.615 213.966Z" fill="#EFAC7F"/>
<path d="M282.798 207.435C279.976 208.007 278.148 209.72 277.476 210.45C276.194 210.601 274.452 211.304 272.654 214.263C270.442 217.901 272.075 221.931 274.65 223.908C277.225 225.886 277.19 228.164 277.19 228.164L277.596 226.988C277.896 226.093 278.019 225.144 277.918 224.205C277.858 223.642 277.737 223.033 277.502 222.532C276.883 221.212 278.832 220.335 279.379 219.236C279.8 218.39 279.82 216.454 280.483 215.056L281.276 213.988C281.276 213.988 283.103 212.576 284.89 212.975C286.677 213.373 286.419 206.701 282.798 207.435Z" fill="#282828"/>
<path d="M278.126 222.924C278.773 222.913 279.283 222.002 279.264 220.888C279.245 219.775 278.705 218.882 278.058 218.893C277.41 218.904 276.901 219.815 276.92 220.928C276.939 222.041 277.479 222.935 278.126 222.924Z" fill="#EFAC7F"/>
<path d="M324.273 239.908H287.514V271.796H324.273V239.908Z" fill="#72E7C7"/>
<path d="M342.276 239.908H310.389V271.796H342.276V239.908Z" fill="#5EC8D8"/>
<path d="M309.765 271.119C307.888 270.575 286.392 265.068 285.582 264.536C284.772 264.004 271.495 251.599 271.495 251.599L279.1 247.576L290.986 259.283C291.797 259.623 307.022 265.413 307.022 265.413C307.022 265.413 311.675 267.312 312.08 267.232C312.422 267.166 312.712 266.859 315.364 266.268C316.13 266.097 317.218 266.42 317.218 266.42C317.218 266.42 318.554 266.828 318.552 267.151C318.55 267.474 318.215 267.719 317.945 267.735C317.676 267.751 317.164 267.529 316.895 267.545C316.626 267.561 316.062 268.16 315.956 268.435C315.892 268.602 319.658 271.354 319.842 271.728C319.928 271.815 324.444 271.507 324.258 271.796C324.257 272.259 323.72 272.125 323.717 272.191C323.647 273.427 317.251 274.346 316.814 274.222C316.083 274.016 309.765 271.119 309.765 271.119Z" fill="#EFAC7F"/>
<path d="M275.589 257.31L284.3 251.606C284.3 251.606 274.21 236.305 270.766 234.725C268.395 233.637 265.443 235.278 264.286 239.3C263.03 243.668 275.589 257.31 275.589 257.31Z" fill="#A7E5EE"/>
<path d="M339.091 247.114L337.613 248.531V240.257C337.613 239.399 336.918 238.704 336.06 238.704H323.141C322.283 238.704 321.587 239.399 321.587 240.257V249.873L319.996 247.114L314.541 248.706C314.541 248.706 318.918 257.038 321.588 258.398C325.158 260.216 334.023 260.175 337.614 258.398C339.798 257.316 343.524 250.645 343.524 250.645L339.091 247.114Z" fill="#FAAD19"/>
<path d="M334.175 259.39C333.922 256.528 331.995 254.303 329.657 254.303C327.31 254.303 325.378 256.544 325.136 259.422C327.934 259.867 331.392 259.851 334.175 259.39Z" fill="#FBD388"/>
<path d="M257.23 27.0384C255.913 29.2764 253.561 29.1858 251.037 29.8136C249.343 30.235 248.302 33.0221 248.464 35.1301C248.874 40.4699 244.69 39.5635 241.322 41.7741C233.256 47.0683 238.459 60.8838 247.272 61.7758C249.038 61.9545 251.048 61.667 252.613 60.7879C253.867 60.0835 254.756 59.181 256.177 58.6784C259.148 57.6266 262.456 57.2616 264.83 54.9781C268.228 51.7095 265.413 50.1125 266.29 47.7338C267.166 45.3557 270.944 46.547 271.663 41.6183C272.441 36.2864 271.589 31.6909 269.622 29.0426C266.368 24.6612 260.651 24.3628 258.567 25.6925C257.946 26.0886 257.517 26.5501 257.23 27.0384Z" fill="#5E2E0D"/>
<path d="M294.253 37.0435C293.94 36.3808 291.15 38.3419 290.531 37.9685C289.913 37.5951 293.031 34.452 292.712 33.9027C292.127 32.8906 289.086 37.1352 288.787 36.6866C288.488 36.2379 291.408 31.7063 290.365 31.4571C289.323 31.208 287.828 36.472 287.293 36.1334C286.758 35.7946 289.123 31.3632 288.114 30.4594C287.575 29.9765 285.032 38.5462 284.109 38.9024C283.187 39.2583 282.148 35.5167 281.279 35.6638C280.411 35.811 284.126 42.5451 283.945 43.0707C283.763 43.5948 280.36 54.5896 278.352 57.9102C277.144 57.3323 275.966 56.7511 274.844 56.1846C274.393 58.7347 274.344 61.4188 273.751 63.9214C277.648 65.6338 281.125 66.8767 282.257 66.4596C285.703 65.191 287.403 48.4619 287.956 45.3408C288.51 42.2166 289.983 41.6039 290.822 39.9637C291.662 38.3237 294.566 37.706 294.253 37.0435Z" fill="#EFAC7F"/>
<path d="M265.436 51.1314L259.668 56.9493C259.668 56.9493 267.288 61.0818 273.751 63.9217C274.344 61.4188 274.393 58.7347 274.844 56.1849C269.504 53.4889 265.436 51.1314 265.436 51.1314Z" fill="#FFD481"/>
<path d="M301.416 115.745C303.946 118.731 305.781 121.84 305.981 122.224C306.078 122.409 306.115 123.473 306.21 123.667C310.148 126.257 314.319 125.539 317.743 124.472C315.488 123.496 312.35 122.366 312.056 121.894C311.587 121.142 309.44 118.416 307.226 113.518C305.461 115.273 303.798 115.071 301.416 115.745Z" fill="#EFAC7F"/>
<path d="M306.022 122.367C305.678 123.939 305.816 127.13 306.128 127.2C306.501 127.284 319.719 129.236 321.412 127.539C322.429 126.519 320.509 125.734 317.743 124.472C314.319 125.539 306.15 123.433 306.022 122.367Z" fill="#3797DB"/>
<path d="M302.538 127.669C305.068 130.654 306.903 133.764 307.104 134.148C307.2 134.333 307.237 135.397 307.332 135.591C311.27 138.181 315.441 137.463 318.866 136.395C316.611 135.42 313.472 134.289 313.178 133.817C312.71 133.066 310.562 130.34 308.348 125.441C306.584 127.197 304.92 126.994 302.538 127.669Z" fill="#EFAC7F"/>
<path d="M307.144 134.291C306.8 135.863 306.938 139.054 307.25 139.124C307.623 139.208 320.841 141.16 322.534 139.463C323.551 138.443 321.631 137.658 318.865 136.396C315.44 137.463 307.272 135.357 307.144 134.291Z" fill="#3797DB"/>
<path d="M309 115.606L302.127 117.986L265.123 87.2889C265.123 87.2889 274.153 87.1735 290.336 88.8268C295.175 89.3212 309 115.606 309 115.606Z" fill="black"/>
<path d="M251.232 84.7418C251.232 84.7418 250.244 87.3386 250.12 88.7536C249.717 93.332 252.083 99.1483 254.632 100.038C257.246 100.951 273.306 105.432 282.98 104.068L303.946 132.017L310.936 128.948L294.561 100.192C294.561 100.192 291.405 95.2398 288.81 94.0752C286.215 92.9103 265.124 87.2891 265.124 87.2891L261.859 82.5422L251.232 84.7418Z" fill="#66676C"/>
<path d="M268.28 55.7675C267.121 53.6237 265.927 51.9226 265.927 51.9226C264.725 49.7785 261.619 48.6939 261.619 48.6939C261.619 48.6939 260.58 48.7149 259.388 48.7737C259.313 48.9724 259.238 49.114 259.162 49.1711C258.714 49.5086 256.145 49.0729 254.486 50.2034C248.924 54.9874 250.462 78.1742 250.899 85.4979L264.411 85.9948C264.411 85.9948 265.703 69.9006 269.145 65.8522C271.541 63.0328 269.999 58.9472 268.28 55.7675Z" fill="#FFD481"/>
<path d="M260.645 40.8496C260.645 40.8496 259.713 47.5218 259.063 49.1431C258.413 50.7643 262.639 54.2321 266.155 55.2843C269.672 56.3368 265.08 51.703 265.226 49.9696C265.372 48.2362 266.011 40.0299 266.011 40.0299L260.645 40.8496Z" fill="#EFAC7F"/>
<path d="M265.834 42.3838C265.936 41.0263 266.011 40.0301 266.011 40.0301L260.645 40.8496C260.645 40.8496 260.509 41.6335 260.36 42.742C262.536 44.0083 264.492 43.6084 265.834 42.3838Z" fill="#D19369"/>
<path d="M262.328 28.6629C262.328 28.6629 260.212 29.1411 258.906 31.1408C257.6 33.1408 256.704 39.0283 261.005 41.7766C265.307 44.5246 268.653 40.6373 268.708 36.8456C268.764 33.0539 267.954 27.9942 262.328 28.6629Z" fill="#EFAC7F"/>
<path d="M269.693 35.6593C269.326 36.5742 268.598 37.142 268.066 36.9276C267.535 36.7128 267.402 35.7974 267.769 34.8825C268.137 33.9673 268.865 33.3998 269.396 33.6141C269.927 33.8287 270.06 34.7444 269.693 35.6593Z" fill="#EFAC7F"/>
<path d="M258.837 36.4114C259.15 37.397 258.864 38.3674 258.2 38.5787C257.536 38.7903 256.745 38.1629 256.433 37.1771C256.121 36.1915 256.406 35.221 257.07 35.0097C257.735 34.7982 258.526 35.4258 258.837 36.4114Z" fill="#EFAC7F"/>
<path d="M276.655 58.2997C276.655 58.2997 278.101 58.3391 278.513 58.2997C280.885 58.0722 279.901 61.5769 279.901 61.5769C279.901 61.5769 278.742 60.4416 278.278 60.4416C277.813 60.4416 277.168 60.5678 277.168 60.5678L276.655 58.2997Z" fill="#5EC8D8"/>
<path d="M284.689 81.7161C284.689 81.7161 285.665 83.2344 286.762 82.5518C287.858 81.8691 289.753 80.546 290.106 81.5424C290.46 82.5386 290.389 83.3682 290.006 83.5679C289.623 83.7679 286.791 85.3068 285.258 85.4111C283.725 85.5156 282.451 84.0612 282.451 84.0612L284.689 81.7161Z" fill="#5EC8D8"/>
<path d="M286.979 85.1516C286.93 83.9509 286.693 82.6205 286.037 81.4864C284.358 78.5844 277.274 70.7628 276.22 70.1556C275.171 69.5442 275.926 67.1913 275.926 67.1913L271.725 64.9234L269.537 63.7402C269.537 63.7402 264.577 71.3119 264.198 72.0263C263.818 72.7418 264.491 75.0811 263.988 76.5218C263.495 77.9601 264.008 85.7752 263.296 86.6335C262.74 87.1892 262.222 87.2677 262.05 87.6022C261.97 87.7542 261.873 88.0056 262.077 88.2674C262.647 88.9985 265.554 88.3848 265.554 88.3848C265.575 88.3399 266.773 86.6568 266.586 85.6558C266.399 84.6873 266.993 78.8566 267.394 78.8566C267.747 78.8566 269.423 81.4483 270.091 81.9413V81.9459C270.167 81.9992 270.225 82.0307 270.274 82.0307C270.756 82.0307 273.859 82.7136 274.542 83.3968C274.725 83.5801 274.797 84.0708 274.801 84.6871C274.81 85.0976 274.788 85.5621 274.752 86.0352C274.685 86.9014 274.564 87.7898 274.48 88.3745C275.216 88.3805 275.957 88.3815 276.694 88.3772C277.301 87.2813 278.583 86.5262 280.065 86.5262C281.46 86.5262 282.678 87.196 283.323 88.1892C284.561 88.1225 285.041 88.7272 286.103 88.6257C286.161 88.2558 286.997 85.625 286.979 85.1516Z" fill="#3797DB"/>
<path d="M277.209 58.5676C276.744 58.1205 276.087 57.9254 275.45 58.0258C275.103 58.0806 274.6 58.1124 273.915 58.0501C272.373 57.9097 270.789 58.0359 269.794 59.0311C268.799 60.0263 268.673 63.5746 269.794 65.2411C270.915 66.9078 274.083 67.3281 274.363 68.085C274.644 68.8419 277.391 69.2062 277.783 68.2812C277.783 68.2812 278.079 68.4811 278.511 68.3589C279.538 68.0681 279.913 67.0479 279.549 65.9545C279.185 64.8614 277.643 62.619 277.923 60.6006C278.053 59.6638 277.664 59.0046 277.209 58.5676Z" fill="#3B77BE"/>
<path d="M276.431 65.4687C276.252 65.6523 276.247 65.9451 276.415 66.1387C276.744 66.5202 277.307 67.1324 277.714 67.3657C278.324 67.7158 278.904 66.2347 278.904 65.5712C278.905 64.9363 277.506 64.3655 276.431 65.4687Z" fill="#5EC8D8"/>
<path d="M275.803 76.107C275.79 75.7852 275.517 75.5355 275.195 75.5549C275.191 75.5552 275.188 75.5554 275.184 75.5557C273.549 75.6551 272.423 77.1441 272.638 78.7679C272.65 78.8558 272.649 78.9356 272.634 79.0047C272.572 79.2915 272.088 80.2542 271.571 81.235C272.551 81.4801 273.53 81.725 274.511 81.9701C275.229 80.725 275.942 79.5655 275.942 79.5655L275.803 76.107Z" fill="#5EC8D8"/>
<path d="M270.223 83.7141C270.223 83.7141 269.112 87.0466 268.793 88.3195C269.69 88.8355 270.234 87.8229 272.269 88.3828C272.323 87.9824 273.04 85.5111 273.04 84.9055C273.04 84.6091 273.944 83.2193 274.662 81.9926C274.715 81.9012 274.668 81.7836 274.566 81.7553C273.676 81.5076 272.547 81.0515 271.658 80.8051C271.546 80.7743 271.427 80.8237 271.374 80.9275C270.763 82.1363 270.223 83.7141 270.223 83.7141Z" fill="#5EC8D8"/>
<path d="M267.969 87.9935C268.19 87.5181 268.837 86.9582 269.792 86.9582C270.746 86.9582 272.269 88.3828 272.269 88.3828C272.269 88.3828 271.817 88.8241 270.573 88.8241C269.329 88.8241 267.54 88.9198 267.969 87.9935Z" fill="#5EC8D8"/>
<path d="M273.581 87.7928C273.802 87.3174 274.449 86.7577 275.404 86.7577C275.762 86.7577 276.199 86.9579 276.607 87.2086C277.258 87.6082 276.985 88.6181 276.222 88.6236C276.21 88.6236 276.198 88.6236 276.185 88.6236C274.941 88.6234 273.151 88.7191 273.581 87.7928Z" fill="#5EC8D8"/>
<path d="M282.533 87.7928C282.798 87.3174 283.577 86.7577 284.725 86.7577C285.156 86.7577 285.683 86.9579 286.174 87.2086C286.956 87.6082 286.628 88.6181 285.71 88.6236C285.695 88.6236 285.68 88.6236 285.666 88.6236C284.169 88.6234 282.016 88.7191 282.533 87.7928Z" fill="#5EC8D8"/>
<path d="M272.935 59.3696C272.484 58.918 272.766 58.3876 273.011 58.077C271.73 58.0483 270.492 58.274 269.662 59.103C268.667 60.0982 268.541 63.6465 269.662 65.313C270.669 66.8095 273.326 67.3011 274.061 67.9337C274.821 66.6394 273.657 65.5498 273.383 64.9403C273.11 64.3307 274.75 62.796 274.939 61.5766C275.128 60.3577 273.622 60.056 272.935 59.3696Z" fill="#5EC8D8"/>
<path d="M270.777 58.3957C270.777 58.3957 269.783 58.7398 268.535 58.2969C267.286 57.8546 266.046 60.0846 266.046 60.0846C266.046 60.0846 267.203 62.5862 268.128 63.1959C269.053 63.8053 270.777 58.3957 270.777 58.3957Z" fill="#3B77BE"/>
<path d="M286.632 79.6783C286.632 79.1239 284.932 77.5231 284.115 77.7821C283.322 78.0333 280.106 80.0507 280.106 80.0507L265.885 76.7064C265.885 76.7064 262.295 68.5217 261.945 61.4902C258.978 61.8929 256.957 62.6286 254.378 64.0648C255.622 70.7895 258.645 81.6896 261.986 83.735C263.392 84.5954 280.177 82.705 280.177 82.705C280.177 82.705 283.667 83.1933 284.534 82.9537C288.093 81.9704 286.632 80.7962 286.632 79.6783Z" fill="#EFAC7F"/>
<path d="M262.032 53.9769C261.592 51.8545 261.078 49.7242 258.784 49.0514C257.361 48.6346 255.766 49.0335 254.63 49.9648C253.278 51.0728 252.9 52.8502 252.906 54.532C252.921 58.3517 253.181 62.3118 253.876 66.0724C256.455 64.6361 260.209 64.8005 263.176 64.3978C263.453 60.9992 262.605 56.743 262.032 53.9769Z" fill="#FFD481"/>
<path d="M146.749 42.0245C145.244 50.0155 140.439 66.8214 132.606 66.5578C132.224 55.5941 131.687 46.1747 130.935 43.1989C130.763 42.5814 130.554 41.9849 130.313 41.4085C135.193 41.8319 138.124 34.394 139.247 29.154C138.247 32.4786 135.98 37.8059 133.009 39.5863C131.324 40.6022 130.087 40.0894 129.616 39.9478C126.784 34.6732 121.434 31.1443 118.85 28.0043C116.807 25.4908 118.117 15.444 118.623 12.2567C117.905 15.955 117.138 21.3717 117.46 25.1487C117.859 29.4082 120.057 29.6783 125.092 35.4C129.125 39.9124 130.532 42.3469 130.674 59.6392C130.366 59.7031 129.975 59.7652 129.559 59.7831C125.43 59.8586 121.634 55.8491 119.532 52.3409C121.193 55.5312 124.138 59.1426 127.593 60.2383C128.225 60.4332 128.886 60.5519 129.557 60.5791C129.923 60.5859 130.322 60.5582 130.68 60.5145C130.769 62.0313 131.233 91.7412 130.822 110.936C132.039 110.95 131.819 110.381 133.013 110.476C132.967 105.277 133.232 85.8355 132.68 68.7741C141.817 68.4038 145.653 51.5 146.749 42.0245Z" fill="#5EC8D8"/>
<path d="M113.242 15.7971C115.105 17.2907 117.881 16.9231 117.881 16.9231L111.134 11.5139C111.134 11.5139 111.379 14.3036 113.242 15.7971Z" fill="#96A65F"/>
<path d="M111.135 11.5127L117.881 16.9219C117.881 16.9219 117.637 14.1322 115.773 12.6387C113.91 11.1451 111.135 11.5127 111.135 11.5127Z" fill="#9ED16F"/>
<path d="M144.579 65.2902C146.966 65.2001 148.824 63.1055 148.824 63.1055L140.183 63.4316C140.183 63.4314 142.193 65.3804 144.579 65.2902Z" fill="#96A65F"/>
<path d="M140.183 63.4314L148.824 63.1052C148.824 63.1052 146.813 61.1562 144.427 61.2466C142.041 61.3367 140.183 63.4314 140.183 63.4314Z" fill="#9ED16F"/>
<path d="M147.082 56.5988C148.712 55.5456 149.142 53.3101 149.142 53.3101L143.236 57.1237C143.236 57.1237 145.451 57.6518 147.082 56.5988Z" fill="#96A65F"/>
<path d="M143.237 57.1232L149.143 53.3096C149.143 53.3096 146.929 52.7812 145.298 53.8347C143.666 54.8875 143.237 57.1232 143.237 57.1232Z" fill="#9ED16F"/>
<path d="M138.639 56.2725C139.312 58.094 141.4 59.0003 141.4 59.0003L138.965 52.4051C138.965 52.4051 137.967 54.4512 138.639 56.2725Z" fill="#96A65F"/>
<path d="M138.964 52.405L141.4 59.0002C141.4 59.0002 142.398 56.9543 141.725 55.1328C141.053 53.3114 138.964 52.405 138.964 52.405Z" fill="#9ED16F"/>
<path d="M119.493 20.8105C118.034 21.8264 117.712 23.8862 117.712 23.8862L122.995 20.2071C122.995 20.2071 120.951 19.7944 119.493 20.8105Z" fill="#96A65F"/>
<path d="M122.995 20.2074L117.711 23.8865C117.711 23.8865 119.755 24.299 121.214 23.2831C122.673 22.267 122.995 20.2074 122.995 20.2074Z" fill="#9ED16F"/>
<path d="M139.669 35.5497C137.897 35.4116 136.343 36.8014 136.343 36.8014L142.762 37.3013C142.762 37.3013 141.442 35.6876 139.669 35.5497Z" fill="#96A65F"/>
<path d="M142.761 37.3013L136.343 36.8014C136.343 36.8014 137.663 38.4154 139.435 38.553C141.207 38.6908 142.761 37.3013 142.761 37.3013Z" fill="#9ED16F"/>
<path d="M120.71 55.7539C118.937 55.6158 117.384 57.0056 117.384 57.0056L123.802 57.5052C123.802 57.5055 122.482 55.8918 120.71 55.7539Z" fill="#96A65F"/>
<path d="M123.802 57.5055L117.384 57.0059C117.384 57.0059 118.704 58.6196 120.476 58.7574C122.248 58.8955 123.802 57.5055 123.802 57.5055Z" fill="#9ED16F"/>
<path d="M124.04 53.9592C123.393 52.3031 121.466 51.5086 121.466 51.5086L123.808 57.5055C123.808 57.5055 124.687 55.6151 124.04 53.9592Z" fill="#96A65F"/>
<path d="M123.808 57.5055L121.466 51.5086C121.466 51.5086 120.587 53.399 121.234 55.0549C121.881 56.711 123.808 57.5055 123.808 57.5055Z" fill="#9ED16F"/>
<path d="M136.713 33.2771C136.316 32.2132 135.093 31.6868 135.093 31.6868L136.53 35.5399C136.53 35.5399 137.11 34.3412 136.713 33.2771Z" fill="#96A65F"/>
<path d="M136.53 35.5399L135.093 31.6869C135.093 31.6869 134.513 32.8855 134.91 33.9496C135.307 35.0135 136.53 35.5399 136.53 35.5399Z" fill="#9ED16F"/>
<path d="M115.408 24.6872C113.747 24.0548 111.865 24.9498 111.865 24.9498L117.881 27.2404C117.881 27.2404 117.07 25.3199 115.408 24.6872Z" fill="#96A65F"/>
<path d="M117.881 27.2403L111.865 24.9498C111.865 24.9498 112.675 26.87 114.337 27.5029C115.998 28.135 117.881 27.2403 117.881 27.2403Z" fill="#9ED16F"/>
<path d="M136.581 110.538H137.519V73.7213C137.519 73.4621 137.309 73.252 137.05 73.252C136.791 73.252 136.581 73.4621 136.581 73.7213V110.538Z" fill="#96A65F"/>
<path d="M125.654 111.86C125.654 111.86 129.972 106.669 133.447 108.147C136.922 109.626 137.49 106.956 139.309 107.836C141.127 108.716 143.401 110.935 143.401 110.935L125.654 111.86Z" fill="#3B77BE"/>
<path d="M133.992 84.1246C133.002 84.1246 131.857 83.8981 130.616 83.2438C130.505 83.1852 130.462 83.0476 130.521 82.9365C130.58 82.8252 130.716 82.7831 130.828 82.8416C134.567 84.8131 137.264 82.7149 137.377 82.6245C137.475 82.546 137.618 82.5619 137.697 82.6596C137.775 82.7573 137.76 82.9002 137.662 82.9789C137.641 82.9951 136.202 84.1246 133.992 84.1246Z" fill="#3797DB"/>
<path d="M130.873 83.2975L130.468 83.0585C130.163 82.8787 127.489 81.2663 127.399 80.0257C127.378 79.7306 127.497 79.4698 127.743 79.2714C128.187 78.9149 128.618 78.8159 129.027 78.978C130.309 79.4867 130.761 82.4904 130.808 82.8313L130.873 83.2975ZM128.641 79.3582C128.453 79.3582 128.25 79.4468 128.028 79.6258C127.897 79.7308 127.841 79.8475 127.852 79.9929C127.904 80.7157 129.363 81.8101 130.274 82.4026C130.074 81.3733 129.602 79.6947 128.86 79.4004C128.789 79.3726 128.716 79.3582 128.641 79.3582Z" fill="#3797DB"/>
<path d="M128.013 86.0481C127.851 86.0481 127.627 85.987 127.457 85.7032C127.317 85.4704 127.293 85.2139 127.385 84.9612C127.75 83.9724 129.887 83.2289 130.129 83.1471L130.685 82.96L130.4 83.4732C130.162 83.9006 128.931 86.0334 128.023 86.0483C128.02 86.0481 128.016 86.0481 128.013 86.0481ZM129.671 83.81C128.951 84.1155 127.996 84.6186 127.812 85.1185C127.766 85.2427 127.777 85.354 127.846 85.4692C127.922 85.5954 127.985 85.5924 128.016 85.5934C128.406 85.5871 129.127 84.6724 129.671 83.81Z" fill="#3797DB"/>
<path d="M130.685 83.3495C130.9 83.3495 131.075 83.1751 131.075 82.96C131.075 82.7449 130.9 82.5704 130.685 82.5704C130.47 82.5704 130.296 82.7449 130.296 82.96C130.296 83.1751 130.47 83.3495 130.685 83.3495Z" fill="#3797DB"/>
<path d="M174.742 22.9854L169.18 21.7004L167.709 25.662L162.177 24.585L160.171 28.1987L155.914 27.9235L155.895 29.6326L161.588 30.0012L163.49 26.5764L169.245 27.6968L170.691 23.8004L175.732 24.9647L174.742 22.9854Z" fill="#9ED16F"/>
<path d="M332.727 112.858L334.734 109.466L333.079 105.89C332.89 105.483 333.251 105.036 333.689 105.134L337.534 105.995L340.424 103.316C340.753 103.011 341.289 103.215 341.331 103.663L341.701 107.586L345.142 109.506C345.534 109.725 345.504 110.299 345.093 110.477L341.475 112.04L340.712 115.906C340.625 116.347 340.071 116.496 339.775 116.16L337.169 113.202L333.257 113.672C332.811 113.724 332.498 113.244 332.727 112.858Z" fill="#FAAD19"/>
<path d="M1.98015 207.054C1.98015 207.054 2.6017 205.298 4.68523 204.672C6.54306 204.113 8.26735 205.204 8.78464 206.924C9.38321 208.914 8.34637 211.794 4.43125 215.204C-0.715094 214.52 -3.16872 212.69 -3.76755 210.699C-4.28484 208.98 -3.44845 207.118 -1.59087 206.559C0.493167 205.933 1.98015 207.054 1.98015 207.054Z" fill="#5EC8D8"/>
<path d="M12.6389 210.182C13.3539 210.019 14.0653 209.843 14.7775 209.669C15.4586 209.502 16.293 209.425 16.8814 209.034C17.3154 208.746 17.2051 208.103 16.6595 208.046C15.9547 207.972 15.1895 208.285 14.5068 208.453C13.7949 208.63 13.0827 208.804 12.3741 208.992C11.6167 209.191 11.8709 210.357 12.6389 210.182Z" fill="#5EC8D8"/>
<path d="M4.82674 221.95C4.61998 221.221 4.55736 220.475 4.66188 219.723C4.72575 219.262 5.29051 217.885 4.40034 217.868C3.56218 217.852 3.45185 219.25 3.39631 219.842C3.32234 220.637 3.40641 221.452 3.6311 222.216C3.8525 222.968 5.04234 222.711 4.82674 221.95Z" fill="#5EC8D8"/>
<path d="M9.78184 216.002C10.2476 216.194 10.7134 216.385 11.1789 216.577C11.6435 216.768 12.1236 217.094 12.6195 216.861C12.8982 216.73 12.9416 216.409 12.8439 216.152C12.6664 215.685 11.9659 215.553 11.5407 215.382C11.0739 215.193 10.6076 215.004 10.1411 214.815C9.83082 214.69 9.45869 214.929 9.36806 215.229C9.26379 215.575 9.47106 215.874 9.78184 216.002Z" fill="#5EC8D8"/>
<path d="M2.51358 202.26C2.60421 201.598 2.6234 200.934 2.57164 200.267C2.52342 199.648 2.53302 198.692 1.87865 198.411C1.73803 198.351 1.51612 198.407 1.41488 198.518C0.992014 198.984 1.29345 199.77 1.33536 200.341C1.3813 200.965 1.36035 201.593 1.29976 202.215C1.26795 202.541 1.56989 202.832 1.88369 202.844C2.2389 202.857 2.4689 202.586 2.51358 202.26Z" fill="#5EC8D8"/>
<path d="M11.8328 200.638C11.8722 200.335 11.5856 200.127 11.3243 200.09C10.7864 200.014 10.257 200.646 9.90352 200.989C9.49176 201.389 9.12292 201.826 8.78059 202.286C8.58316 202.552 8.7157 202.966 8.97952 203.13C9.28853 203.321 9.6152 203.19 9.82222 202.931C11.1767 201.238 11.7366 201.386 11.8328 200.638Z" fill="#5EC8D8"/>
<path d="M4.67224 259.117C4.36828 261.513 6.86357 263.415 9.08242 263.265C11.5358 263.099 13.6166 261.087 13.9753 258.676C14.3636 256.067 12.7958 253.981 10.3702 253.789C8.00922 253.603 6.49877 255.705 7.18066 257.825C7.66967 259.345 9.05768 259.913 9.75673 259.493C10.3018 259.166 10.2687 258.341 9.60905 258.196C9.34473 258.137 9.07232 258.285 8.9317 258.488C8.35408 258.258 7.80473 257.207 8.17761 256.072C8.654 254.622 10.4871 254.539 11.6259 255.215C13.075 256.076 13.3028 257.929 12.7713 259.407C12.2131 260.957 10.6901 262.179 9.03168 262.297C7.1534 262.43 5.50005 260.99 5.35009 259.119C5.31475 258.677 4.72652 258.688 4.67224 259.117Z" fill="#FAAD19"/>
<path d="M16.1412 155.33L16.1054 150.845L12.3897 148.331C11.9663 148.045 12.0552 147.397 12.5399 147.235L16.7956 145.815L18.0379 141.504C18.1796 141.013 18.8228 140.898 19.1263 141.308L21.7922 144.917L26.2761 144.767C26.7866 144.75 27.0956 145.325 26.7985 145.741L24.1901 149.391L25.7187 153.609C25.8929 154.09 25.4402 154.561 24.9532 154.407L20.6756 153.055L17.1364 155.812C16.7335 156.126 16.1453 155.842 16.1412 155.33Z" fill="#FAAD19"/>
<path d="M345.019 214.234C347.089 214.234 348.767 212.556 348.767 210.486C348.767 208.416 347.089 206.738 345.019 206.738C342.949 206.738 341.271 208.416 341.271 210.486C341.271 212.556 342.949 214.234 345.019 214.234Z" fill="#62BDF3"/>
<path d="M347.636 221.33C347.411 220.242 347.277 219.079 346.905 218.03C346.587 217.129 345.18 217.405 345.251 218.372C345.339 219.557 345.709 220.759 345.957 221.92C346.058 222.391 346.68 222.609 347.092 222.465C347.595 222.288 347.733 221.803 347.636 221.33Z" fill="#62BDF3"/>
<path d="M354.059 216.686C352.817 215.954 351.734 215.046 350.588 214.18C349.692 213.503 348.726 214.668 349.463 215.472C350.521 216.627 351.91 217.529 353.25 218.32C353.675 218.57 354.264 218.325 354.472 217.907C354.704 217.439 354.484 216.936 354.059 216.686Z" fill="#62BDF3"/>
<path d="M351.707 209.976C351.425 210.202 351.37 210.526 351.543 210.841C351.963 211.603 353.029 211.565 353.787 211.54C354.577 211.513 355.367 211.353 356.114 211.097C357.219 210.72 356.621 209.006 355.512 209.384C353.344 210.124 352.523 209.321 351.707 209.976Z" fill="#62BDF3"/>
<path d="M350.513 202.688C349.422 204.284 348.531 204.823 348.67 205.702C348.751 206.215 349.157 206.461 349.653 206.348C350.239 206.215 350.558 205.594 350.909 205.158C351.246 204.74 351.577 204.321 351.877 203.875C352.15 203.471 352.189 202.948 351.788 202.6C351.453 202.308 350.79 202.283 350.513 202.688Z" fill="#62BDF3"/>
<path d="M346.263 202.412C345.914 201.444 345.838 201.092 345.385 200.643C344.992 200.252 344.162 200.501 344.107 201.077C344.043 201.748 344.183 201.998 344.55 203.014C344.716 203.475 345.242 203.733 345.708 203.57C346.169 203.408 346.43 202.874 346.263 202.412Z" fill="#62BDF3"/>
<path d="M341.672 204.753C340.099 203.558 339.78 203.221 339.162 203.286C338.8 203.324 338.393 203.672 338.472 204.079C338.619 204.834 339.059 205.04 340.504 206.094C340.892 206.377 341.425 206.392 341.759 206.007C342.059 205.663 342.056 205.044 341.672 204.753Z" fill="#62BDF3"/>
<path d="M335.355 210.229C334.736 210.558 334.985 211.629 335.655 211.717C336.299 211.801 336.547 211.698 339.67 211.128C340.152 211.04 340.549 210.688 340.512 210.159C340.481 209.711 340.029 209.229 339.544 209.317C336.301 209.902 335.977 209.899 335.355 210.229Z" fill="#62BDF3"/>
<path d="M340.246 215.336C338.535 216.993 338.285 216.7 337.609 217.713C337.3 218.176 337.81 218.914 338.348 218.815C339.038 218.689 339.224 218.572 340.124 217.859C340.646 217.445 341.147 217 341.627 216.538C341.983 216.195 341.887 215.551 341.538 215.247C341.138 214.899 340.603 214.992 340.246 215.336Z" fill="#62BDF3"/>
<path d="M47.2901 361.031H50.956V166.356C50.956 165.344 50.1352 164.523 49.1229 164.523C48.1105 164.523 47.2898 165.344 47.2898 166.356V361.031H47.2901Z" fill="#DBDFF1"/>
<path d="M72.054 361.031H75.7199V163.06C75.7199 162.048 74.8994 161.227 73.887 161.227C72.8749 161.227 72.054 162.048 72.054 163.06V361.031Z" fill="#DBDFF1"/>
<path d="M75.1289 185.626H49.8962V187.824H75.1289V185.626Z" fill="#DBDFF1"/>
<path d="M75.1289 215.064H49.8962V217.262H75.1289V215.064Z" fill="#DBDFF1"/>
<path d="M75.1289 244.502H49.8962V246.7H75.1289V244.502Z" fill="#DBDFF1"/>
<path d="M75.1289 273.94H49.8962V276.138H75.1289V273.94Z" fill="#DBDFF1"/>
<path d="M56.9353 292.625H41.0179C39.7033 292.625 38.6379 293.69 38.6379 295.004V303.94H41.2996V295.469H56.9353V292.625Z" fill="#13375B"/>
<path d="M59.9776 286.591L55.0436 281.386C55.0436 281.386 49.7624 284.29 43.6058 287.065C41.9133 284.12 39.1511 274.43 39.0027 273.967C38.8537 273.504 42.2379 267.683 41.4811 267.537C40.7237 267.391 39.7409 270.646 38.9406 270.316C38.1406 269.986 36.083 262.436 35.6013 262.848C34.7003 263.619 36.6836 267.544 36.2087 267.83C35.7336 268.116 34.5286 263.479 33.6112 263.677C32.694 263.874 35.1603 267.898 34.8896 268.284C34.6193 268.671 32.0414 264.897 31.5087 265.771C31.2197 266.246 33.8864 269.058 33.338 269.373C32.7895 269.687 30.3861 267.916 30.0988 268.49C29.8117 269.064 32.3416 269.661 33.0437 271.113C33.7463 272.565 35.0232 273.13 35.4468 275.876C35.8702 278.618 37.0292 293.294 40.0203 294.471C42.6328 295.5 59.9776 286.591 59.9776 286.591Z" fill="#EFAC7F"/>
<path d="M105.488 354.244C105.877 351.476 105.847 346.366 105.649 340.974C108.064 340.852 110.107 340.699 112.519 340.54C111.514 347.425 110.839 354.515 110.839 354.515L111.004 355.876L111.093 359.91L97.4285 360.011C97.4285 360.011 100.308 358.735 104.337 356.212C104.635 356.025 105.321 355.43 105.488 354.244Z" fill="#EFAC7F"/>
<path d="M111.461 360.776L97.0522 360.946C96.5306 360.9 96.4033 360.478 96.5841 360.218C96.9567 359.682 98.602 359.289 100.452 358.436C103.696 358.774 110.484 356.558 110.996 355.813C111.291 357.305 111.75 360.712 111.461 360.776Z" fill="#66676C"/>
<path d="M129.97 351.392C128.843 348.834 126.123 344.508 123.113 340.03C125.1 338.654 127.07 337.252 129.036 335.845C131.812 342.226 134.66 348.802 134.66 348.802L135.518 349.872L137.719 353.253L126.161 360.542C126.161 360.542 127.935 357.939 130.029 353.671C130.184 353.356 130.454 352.489 129.97 351.392Z" fill="#EFAC7F"/>
<path d="M138.321 354.099L126.334 361.534C125.866 361.77 125.536 361.478 125.553 361.161C125.587 360.51 126.778 359.309 127.9 357.609C130.836 356.187 135.408 350.691 135.45 349.788C136.488 350.9 138.534 353.892 138.321 354.099Z" fill="#66676C"/>
<path d="M124.349 238.848C125.418 233.637 122.067 228.472 117.367 226.533C117.398 223.568 116.438 219.812 114.414 217.782C110.42 213.778 102.799 212.375 99.8619 217.48C95.9827 219.674 92.931 224.427 94.0875 228.757C90.3279 232.65 91.756 239.696 97.2379 243.023C97.151 247.392 99.4608 251.734 103.281 253.601C104.198 254.049 105.633 254.674 105.814 254.868C105.575 254.642 108.644 263.186 118.177 259.276C127.905 255.285 130.69 244.052 124.349 238.848Z" fill="#5E2E0D"/>
<path d="M105.236 350.335C106.42 343.771 102.309 327.498 99.8022 320.343C97.1943 312.901 95.5364 281.408 95.5364 281.408L98.4927 277.951L110.558 277.229C110.558 277.229 105.425 293.002 105.425 298.422C105.425 303.841 107.922 317.832 110.856 325.111C113.562 331.827 112.438 345.908 111.618 350.539C109.436 350.891 107.367 350.764 105.236 350.335Z" fill="black"/>
<path d="M113.608 278.693C114.16 279.245 117.403 283.085 117.403 285.77C117.403 288.454 111.292 312.612 112.758 314.076C114.225 315.541 119.651 319.207 123.113 324.313C126.03 328.616 132.719 341.057 133.996 344.016C131.475 345.77 129.287 346.57 126.762 347.416C126.357 345.213 106.597 323.431 104.34 318.875C102.083 314.321 100.861 293.497 99.7201 290.732C98.5795 287.966 95.5361 280.94 95.5361 280.94L113.608 278.693Z" fill="#66676C"/>
<path d="M96.0049 260.889C96.0049 260.889 88.5564 269.39 80.3129 272.589C79.0241 273.089 77.9158 274.067 77.9158 274.067C77.9158 274.935 79.4621 274.306 79.4621 274.306C79.4621 274.306 78.9443 275.151 79.2159 276.181C79.4876 277.211 81.2848 276.527 82.2628 276.527C82.7107 276.527 85.0091 273.955 88.1128 272.442C91.7858 270.653 96.1195 268.902 96.6494 268.374C97.6272 267.397 96.2947 260.578 96.0049 260.889Z" fill="#EFAC7F"/>
<path d="M111.156 236.965C111.156 236.965 103.659 236.206 99.7476 238.7C95.8362 241.195 93.3372 250.087 93.3372 253.884C93.3372 257.68 96.1571 277.635 95.0731 281.431C95.0731 281.431 107.461 280.889 111.699 280.889C115.936 280.889 116.805 279.262 116.805 279.262C116.805 279.262 108.005 270.586 108.005 266.79C108.005 262.994 111.156 236.965 111.156 236.965Z" fill="#A7E5EE"/>
<path d="M8.78979 339.212V352.214H10.1965V340.393H19.5165V344.451C15.9136 344.838 13.0982 348.166 13.0982 352.214C13.0982 356.522 16.2868 360.015 20.2201 360.015C24.1534 360.015 27.3416 356.522 27.3416 352.214C27.3416 348.166 24.5265 344.838 20.9232 344.451V340.393H22.8572V338.853H20.9232V334.171H22.8572V332.631H20.9232V327.422H46.4209V325.111H32.333V311.873C32.333 308.336 35.5836 304.382 39.934 304.382H52.0481V302.07H39.9337C34.7606 302.07 30.2227 306.651 30.2227 311.873V325.111H20.9232V317.685H19.5165V332.631H14.7983C11.4853 332.631 8.78979 335.583 8.78979 339.212ZM19.5165 338.853H10.2086C10.3775 336.24 12.3712 334.171 14.7983 334.171H19.5165V338.853Z" fill="#6FBCB5"/>
<path d="M14.3122 341.254C14.3122 341.254 14.596 346.267 14.5975 346.278C14.7017 346.914 15.1127 348.487 15.1127 349.066C15.1127 351.239 5.44033 347.22 7.60818 346.257C7.80434 346.169 8.92121 344.965 9.20144 344.278C9.70106 343.053 9.91969 340.653 9.91969 340.653L14.3122 341.254Z" fill="#F48C7F"/>
<path d="M7.63225 346.236C7.63225 346.236 9.90311 346.902 11.0662 347.067C12.2292 347.234 13.7627 345.834 14.5852 346.212C15.4907 346.628 15.5425 350.451 15.5425 350.451C15.5425 350.451 3.38541 350.856 -0.146726 350.337C-1.5567 350.131 2.99006 347.785 7.63225 346.236Z" fill="#66676C"/>
<path d="M62.7324 330.544H65.4042V279.641C65.4042 277.924 67.0853 276.527 69.1524 276.527H93.1876C93.8291 276.527 94.3494 276.029 94.3494 275.417C94.3494 274.804 93.8291 274.307 93.1876 274.307H69.1524C65.6125 274.307 62.7324 276.7 62.7324 279.641V330.544Z" fill="#6FBCB5"/>
<path d="M50.2055 352.402C59.1101 352.402 66.3287 345.119 66.3287 336.134C66.3287 327.149 59.1101 319.866 50.2055 319.866C41.3009 319.866 34.0823 327.149 34.0823 336.134C34.0823 345.119 41.3009 352.402 50.2055 352.402Z" fill="#6FBCB5"/>
<path d="M30.5723 336.134C30.5723 347.075 39.3626 355.944 50.2059 355.944C61.0489 355.944 69.8393 347.075 69.8393 336.134C69.8393 325.194 61.0489 316.325 50.2059 316.325C39.3626 316.325 30.5723 325.194 30.5723 336.134ZM32.4329 336.134C32.4329 326.231 40.3901 318.202 50.2059 318.202C60.0214 318.202 67.9787 326.231 67.9787 336.134C67.9787 346.038 60.0214 354.067 50.2059 354.067C40.3898 354.067 32.4329 346.038 32.4329 336.134Z" fill="#6FBCB5"/>
<path d="M70.9845 283.001H63.0962V313.563H70.9845V283.001Z" fill="#5EC8D8"/>
<path d="M37.2189 332.631H30.545C26.9484 332.631 24.0222 335.583 24.0222 339.212V352.214H25.5496V339.212C25.5496 336.433 27.7904 334.171 30.5452 334.171H37.2192V332.631H37.2189Z" fill="#5EC8D8"/>
<path d="M34.4583 315.53H13.7136V319.089H34.4583V315.53Z" fill="#6FBCB5"/>
<path d="M37.1053 338.853H24.7859V340.393H37.1053V338.853Z" fill="#5EC8D8"/>
<path d="M64.8756 325.111H36.4309V327.423H64.8756V325.111Z" fill="#5EC8D8"/>
<path d="M70.9845 315.476H33.9492V319.089H70.9845V315.476Z" fill="#6FBCB5"/>
<path d="M69.8394 333.268H72.1302V282.365C72.1302 280.647 73.5717 279.25 75.3439 279.25H96.9475V277.03H75.3439C72.3089 277.03 69.8394 279.424 69.8394 282.365V333.268Z" fill="#5EC8D8"/>
<path d="M36.4307 360.015C41.1783 360.015 45.0271 356.522 45.0271 352.214C45.0271 347.906 41.1783 344.413 36.4307 344.413C31.683 344.413 27.8342 347.906 27.8342 352.214C27.8342 356.522 31.683 360.015 36.4307 360.015Z" fill="#6FBCB5"/>
<path d="M36.4307 356.964C39.3217 356.964 41.6652 354.837 41.6652 352.214C41.6652 349.591 39.3217 347.464 36.4307 347.464C33.5398 347.464 31.1963 349.591 31.1963 352.214C31.1963 354.837 33.5398 356.964 36.4307 356.964Z" fill="#5EC8D8"/>
<path d="M15.4663 302.07C17.9522 299.584 52.598 300.783 52.598 300.783C52.598 300.783 23.2468 307.945 21.5331 308.879C19.8192 309.814 13.4413 341.335 13.4337 341.747C11.6633 341.326 10.5913 341.645 8.78979 341.276C9.0781 335.799 11.4613 306.075 15.4663 302.07Z" fill="black"/>
<path d="M18.8436 341.407C18.8436 341.407 19.1274 346.42 19.1292 346.431C19.2334 347.067 19.6442 348.64 19.6442 349.218C19.6442 351.392 9.97201 347.373 12.1396 346.41C12.336 346.322 13.6685 345.171 13.7331 344.431C13.8326 343.291 13.7801 341.477 13.7801 341.477L18.8436 341.407Z" fill="#F7A491"/>
<path d="M12.1635 346.389C12.1635 346.389 14.4344 347.054 15.5972 347.22C16.7602 347.387 18.2937 345.986 19.1162 346.365C20.0218 346.781 20.0738 350.603 20.0738 350.603C20.0738 350.603 7.91666 351.008 4.38452 350.49C2.97455 350.284 7.52131 347.938 12.1635 346.389Z" fill="#66676C"/>
<path d="M57.9997 307.897C57.9997 307.897 57.7006 315.761 55.0829 315.856C52.4651 315.95 35.6671 316.325 26.2057 315.475L19.84 343.611L12.3645 342.89C12.3645 342.89 14.6162 324.1 15.4167 316.953C16.2044 309.921 18.475 304.022 22.4502 303.879C26.4251 303.736 52.5585 299.693 52.5585 299.693L57.9997 307.897Z" fill="#66676C"/>
<path d="M65.0459 271.183C65.0459 271.183 69.2872 272.259 68.7119 280.542C68.137 288.826 63.5552 313.888 55.0832 315.856C46.6112 317.824 41.0928 299.983 41.0928 299.983C41.0928 299.983 46.4381 298.227 48.664 289.934C50.2062 284.189 54.3397 271.225 55.3748 270.601C57.9446 269.053 65.0459 271.183 65.0459 271.183Z" fill="#FFD481"/>
<path d="M47.29 326.891H49.5811V311.873C49.5811 308.337 53.1102 304.382 57.8329 304.382H70.9844V302.07H57.8329C52.217 302.07 47.2903 306.651 47.2903 311.873V326.891H47.29Z" fill="#5EC8D8"/>
<path d="M70.9846 356.964C81.2115 356.964 89.5021 348.599 89.5021 338.28C89.5021 327.962 81.2115 319.597 70.9846 319.597C60.7576 319.597 52.467 327.962 52.467 338.28C52.467 348.599 60.7576 356.964 70.9846 356.964Z" fill="#5EC8D8"/>
<path d="M48.4358 338.28C48.4358 350.845 58.5313 361.031 70.9845 361.031C83.4378 361.031 93.5333 350.845 93.5333 338.28C93.5333 325.715 83.4378 315.53 70.9845 315.53C58.5313 315.53 48.4358 325.715 48.4358 338.28ZM50.5726 338.28C50.5726 326.906 59.7113 317.685 70.9845 317.685C82.2578 317.685 91.3968 326.906 91.3968 338.28C91.3968 349.655 82.258 358.875 70.9845 358.875C59.7113 358.875 50.5726 349.655 50.5726 338.28Z" fill="#5EC8D8"/>
<path d="M70.9846 353.689C79.4192 353.689 86.2567 346.791 86.2567 338.28C86.2567 329.77 79.4192 322.871 70.9846 322.871C62.55 322.871 55.7124 329.77 55.7124 338.28C55.7124 346.791 62.55 353.689 70.9846 353.689Z" fill="#6FBCB5"/>
<path d="M70.9843 341.747C72.8821 341.747 74.4205 340.195 74.4205 338.28C74.4205 336.366 72.8821 334.813 70.9843 334.813C69.0865 334.813 67.5481 336.366 67.5481 338.28C67.5481 340.195 69.0865 341.747 70.9843 341.747Z" fill="#5EC8D8"/>
<path d="M26.1854 350.545H2.86963V354.583H26.1854V350.545Z" fill="#6FBCB5"/>
<path d="M26.1856 350.545H12.9497V354.583H26.1856V350.545Z" fill="#5EC8D8"/>
<path d="M37.1944 319.046H35.667V354.583H37.1944V319.046Z" fill="#5EC8D8"/>
<path d="M36.4666 353.618C36.9872 353.618 37.4093 353.193 37.4093 352.667C37.4093 352.142 36.9872 351.716 36.4666 351.716C35.946 351.716 35.5239 352.142 35.5239 352.667C35.5239 353.193 35.946 353.618 36.4666 353.618Z" fill="#6FBCB5"/>
<path d="M62.4854 249.005C62.4854 249.005 65.4563 246.997 66.7123 250.515C66.7027 250.488 67.7615 250.498 67.9044 250.546C68.5153 250.752 69.1058 251.389 69.6506 251.738C71.5908 252.98 72.4852 255.393 72.591 257.609C72.719 260.298 71.6074 262.265 69.839 264.207C69.3181 264.78 68.761 265.338 68.0786 265.704C67.2551 266.146 66.6045 265.795 65.8307 265.982C65.1791 266.141 64.9501 266.828 64.1816 266.58C63.1044 266.232 61.9737 264.883 60.6382 265.083C59.3044 265.283 56.2242 264.082 56.2161 264.079C52.2591 262.536 54.9311 254.878 55.6895 252.16C56.4027 249.604 60.0373 248.081 62.4854 249.005Z" fill="#282828"/>
<path d="M58.9105 266.406L57.8827 269.21L57.3288 270.778C57.3288 270.778 57.2902 273.583 57.9443 274.31C59.07 275.561 63.7006 270.925 63.7006 270.925L65.1671 262.103L58.9105 266.406Z" fill="#EFAC7F"/>
<path d="M64.6912 264.962C62.93 267.693 59.896 268.94 57.8728 269.237L58.9102 266.406L65.1668 262.103L64.6912 264.962Z" fill="#D19369"/>
<path d="M63.9642 253.042C61.6065 251.6 58.5122 252.695 57.542 255.239C57.1201 256.345 56.6493 257.748 56.2736 259.314C55.3701 263.08 56.5145 267.191 58.2314 267.571C59.9481 267.95 65.2331 266.55 66.5901 261.221C67.4282 257.93 66.4386 254.555 63.9642 253.042Z" fill="#EFAC7F"/>
<path d="M66.7849 260.118C66.1029 259.967 65.4008 260.521 65.2166 261.355C65.0324 262.189 65.4359 262.987 66.1179 263.137C66.7999 263.288 67.5021 262.734 67.6863 261.9C67.8704 261.067 67.4669 260.268 66.7849 260.118Z" fill="#EFAC7F"/>
<path d="M59.9298 262.928C59.9298 262.928 62.1923 263.667 62.3771 264.498C62.5619 265.329 62.2847 266.53 61.1767 267.453C60.0686 268.377 57.6983 267.807 57.0517 267.299C56.4052 266.791 55.9127 264.636 56.5592 263.436C57.2057 262.236 59.9298 262.928 59.9298 262.928Z" fill="#282828"/>
<path d="M60.6688 264.667C60.6688 264.667 60.6552 265.593 60.3457 265.76C60.0455 265.922 59.6658 266.058 59.3144 266.091C58.7448 266.145 58.2311 265.902 57.9317 265.464C57.9021 265.42 57.8751 265.375 57.8521 265.33C57.6211 264.868 57.575 264.052 57.575 264.052C57.575 264.052 58.5295 263.821 59.0834 263.913C59.6375 264.006 60.6688 264.667 60.6688 264.667Z" fill="#EFAC7F"/>
<path d="M85.1342 275.466C86.0305 274.571 90.1864 273.189 93.3371 270.911C94.7306 269.904 97.409 268.578 100.016 267.136C101.92 268.192 103.642 269.516 104.928 271.101C100.211 273.269 95.0927 275.449 94.3149 276.226C92.8478 277.689 90.2947 280.997 89.6972 280.997C89.0998 280.997 84.5637 279.669 83.8846 278.991C83.206 278.313 84.238 276.361 85.1342 275.466Z" fill="#EFAC7F"/>
<path d="M100.016 267.136C103.304 265.318 106.476 263.314 106.809 261.53C107.407 258.33 104.691 244.502 106.212 241.845C107.733 239.188 111.156 236.965 111.156 236.965C111.699 236.965 113.654 238.158 114.197 240.544C114.741 242.93 113.763 264.404 113.22 266.356C112.965 267.272 109.247 270.922 105.071 272.841C103.785 271.257 101.92 268.192 100.016 267.136Z" fill="#A7E5EE"/>
<path d="M66.149 296.098L53.0409 299.532C53.0409 299.532 49.1871 302.311 47.4538 302.863C45.7206 303.414 43.6028 305.324 44.0178 305.91C44.4334 306.495 46.6106 304.505 46.9643 304.566C47.3177 304.627 45.6846 306.982 45.4192 308.527C45.1539 310.071 44.6235 311.571 45.5091 311.45C46.3945 311.329 47.0375 307.85 47.0375 307.85C47.0375 307.85 48.3992 305.22 48.6191 305.53C48.8388 305.841 47.7095 307.646 47.7095 307.646C47.7095 307.646 47.4414 309.598 47.3235 310.285C47.2356 310.797 47.7072 312.335 48.1089 311.77C48.3455 311.438 48.2341 310.168 48.5083 309.444C49.0713 307.958 49.991 306.781 49.991 306.781C49.991 306.781 49.0059 311.23 49.6249 311.336C50.2439 311.442 50.8842 307.756 50.8842 307.756C50.8842 307.756 52.3969 304.686 53.0571 304.412C53.717 304.138 55.5319 302.969 56.9356 302.482C58.339 301.995 64.1412 303.6 66.7297 303.634C69.3181 303.668 73.5187 302.066 73.8671 300.035C73.9737 299.415 73.5867 298.73 72.9974 298.077C71.2858 296.18 68.6228 295.449 66.149 296.098Z" fill="#EFAC7F"/>
<path d="M65.0457 271.183C65.0457 271.183 69.0112 270.477 72.6014 276.935C76.1916 283.393 73.8675 300.036 73.8675 300.036L66.1489 296.098L65.0457 271.183Z" fill="#FFD481"/>
<path d="M82.7064 276.757C82.2409 276.757 79.7989 276.91 79.4154 276.527C79.0319 276.144 80.6784 275.164 80.8448 275.33C81.0112 275.496 81.709 275.13 81.9417 275.363C82.1745 275.595 82.8733 275.33 83.072 275.529C83.2709 275.727 83.1717 276.757 82.7064 276.757Z" fill="#EFAC7F"/>
<path d="M107.263 230.273C107.263 230.273 106.428 234.862 106.595 236.673C106.762 238.483 105.958 244.317 102.353 244.336C98.7473 244.355 101.198 238.279 101.538 236.505C101.877 234.731 102.428 227.879 102.428 227.879L107.263 230.273Z" fill="#EFAC7F"/>
<path d="M102.205 230.477C102.262 228.975 102.533 227.781 102.533 227.781L107.263 230.273C107.263 230.273 107.092 231.211 106.92 232.407C104.804 232.859 103.122 231.869 102.205 230.477Z" fill="#D19369"/>
<path d="M107.365 216.941C107.365 216.941 109.397 217.664 110.502 219.873C111.608 222.082 111.972 228.265 107.516 230.64C103.06 233.015 100.121 228.634 100.397 224.709C100.674 220.784 101.909 215.641 107.365 216.941Z" fill="#EFAC7F"/>
<path d="M99.073 223.616C98.9556 224.633 99.3153 225.501 99.8768 225.555C100.438 225.608 100.988 224.826 101.106 223.808C101.223 222.791 100.863 221.923 100.302 221.869C99.7402 221.816 99.1906 222.598 99.073 223.616Z" fill="#EFAC7F"/>
<path d="M110.109 225.328C109.718 226.314 109.913 227.348 110.545 227.638C111.177 227.928 112.007 227.366 112.399 226.381C112.791 225.396 112.596 224.362 111.964 224.071C111.331 223.78 110.501 224.343 110.109 225.328Z" fill="#EFAC7F"/>
<path d="M329.146 48.6773L337.843 60.614L343.601 54.3157L329.146 48.6773Z" fill="#6FBCB5"/>
<path d="M344.381 51.0168L343.601 54.3157L329.146 48.6773L344.381 51.0168Z" fill="#5EC8D8"/>
<path d="M343.601 55.5754L329.146 48.6773L342.582 60.614L343.601 55.5754Z" fill="#5EC8D8"/>
<path d="M352.382 69.8796C352.276 69.8693 349.735 69.6077 346.515 67.603C343.282 65.5901 342.072 62.0772 342.072 61.5137C342.072 61.2984 342.246 61.1237 342.462 61.1237C342.675 61.1237 342.848 61.2941 342.851 61.5061C342.886 61.882 343.92 65.0686 346.927 66.941C349.979 68.8418 352.432 69.1008 352.457 69.1033C352.671 69.1243 352.827 69.3146 352.807 69.529C352.786 69.7431 352.596 69.9001 352.382 69.8796ZM342.852 61.5097C342.852 61.5109 342.852 61.5124 342.852 61.514C342.852 61.5124 342.852 61.5112 342.852 61.5097Z" fill="#62BDF3"/>
<path d="M368.183 73.4107C363.676 72.5067 359.365 70.8433 355.37 68.4654C352.079 66.507 349.425 63.5212 346.069 61.8636C345.875 61.7682 345.796 61.5344 345.891 61.3413C345.987 61.1481 346.221 61.0688 346.414 61.1643C349.888 62.8802 352.521 65.863 355.769 67.7953C359.688 70.1278 363.916 71.7602 368.336 72.6465C369.96 72.9722 371.885 73.0914 374.057 73.001C374.273 72.9924 374.454 73.1591 374.463 73.3744C374.472 73.5895 374.305 73.7713 374.09 73.7801C372.161 73.8604 370.084 73.7922 368.183 73.4107Z" fill="#62BDF3"/>
<path d="M177.392 210.228C177.392 210.228 167.825 193.152 165.498 189.523C163.17 185.893 157.107 171.47 156.89 170.902C156.673 170.333 161.065 163.507 160.085 163.274C159.105 163.04 158.02 166.872 156.974 166.414C155.928 165.957 152.872 156.731 152.276 157.188C151.161 158.045 153.923 162.911 153.329 163.218C152.734 163.525 150.933 157.864 149.765 158.03C148.598 158.197 151.986 163.219 151.659 163.663C151.333 164.106 147.816 159.374 147.179 160.383C146.834 160.931 150.413 164.514 149.726 164.849C149.038 165.184 145.854 162.872 145.517 163.539C145.179 164.206 148.462 165.119 149.443 166.917C150.425 168.715 152.096 169.492 152.79 172.821C153.484 176.151 154.522 188.199 158.077 194.211C161.633 200.222 169.452 213.526 169.452 213.526L177.392 210.228Z" fill="#EFAC7F"/>
<path d="M219.794 292.626C219.794 292.626 219.015 291.655 218.781 291.312C218.506 290.91 217.778 289.642 217.778 289.642C217.778 289.642 215.448 285.106 215.798 284.961C216.147 284.815 216.981 285.371 217.223 285.6C217.465 285.829 217.77 286.075 218.012 286.304C218.254 286.534 218.625 286.544 218.932 286.263C219.238 285.982 218.472 284.858 218.13 284.522C217.064 283.475 213.65 281.251 213.299 281.001C212.884 280.704 210.291 272.092 209.168 269.213C209.168 269.213 209.169 269.212 209.169 269.212C207.472 264.444 205.966 259.457 205.789 258.951L204.72 237.299L196.632 234.604C196.632 234.604 197.481 258.649 197.661 259.846C197.746 260.416 202.536 271.164 202.541 271.162C205.233 276.306 207.618 280.831 208.051 281.714C208.051 281.714 208.639 284.701 208.9 286.626C209.162 288.55 210.175 290.216 210.332 290.745C210.355 290.823 210.795 292.675 212.13 294.593C213.28 296.246 212.948 294.139 212.948 294.139C212.948 294.139 211.368 290.684 211.662 290.602C211.888 290.539 212.64 292.478 213.894 294.32C214.216 294.795 214.536 295.261 214.833 295.687C215.614 296.805 216.525 296.634 215.895 295.331C215.673 294.87 215.285 294.115 214.932 293.617C214.55 293.079 214.375 292.458 214.124 291.956C213.625 290.958 213.249 290.237 213.301 290.238C213.369 290.24 213.41 289.97 213.768 290.462C214.198 291.054 214.834 292.518 215.534 293.337C215.931 293.802 216.702 294.825 216.702 294.825C216.702 294.825 218.132 296.345 218.239 296.284C218.816 295.956 218.103 294.571 217.481 294.012C217.269 293.449 216.428 292.396 216.428 292.396C216.428 292.396 215.206 289.877 215.56 289.694C215.851 289.542 219.941 294.994 220.496 294.623C220.949 294.322 219.794 292.626 219.794 292.626Z" fill="#EFAC7F"/>
<path d="M205.327 208.279C205.523 203.556 204.827 198.892 202.714 194.496C200.896 190.712 196.398 188.566 192.296 188.56C179.27 188.544 177.613 205.754 169.322 212.392C166.788 214.421 163.956 216.073 161.559 218.261C152.706 226.338 156.694 241.291 164.822 248.372C170.463 253.287 179.329 256.079 186.281 252.237C189.91 250.232 192.665 246.898 194.628 243.246C197.413 238.063 199.209 232.082 201.191 226.558C203.299 220.678 205.066 214.556 205.327 208.279Z" fill="#282828"/>
<path d="M164.609 360.324C164.609 360.324 163.692 366.676 162.113 368.726C161.583 369.415 160.615 370.284 159.979 371.528C158.991 373.464 159.537 376.346 160.267 377.933C160.641 378.748 160.24 378.745 161.093 379.008C163.619 379.785 166.305 378.476 167.38 376.062C167.981 374.714 168.508 372.915 168.614 370.649C168.883 364.881 170.681 361.949 170.681 361.949L164.609 360.324Z" fill="#EFAC7F"/>
<path d="M192.23 363.229C192.23 363.229 192.797 370.393 192.337 372.72C192.09 373.967 190.719 376.534 191.348 377.707C191.977 378.879 192.696 379.173 192.696 379.173L209 379.435C209.889 379.449 209.302 378.879 208.586 378.353C207.414 377.493 206.468 376.925 202.723 375.117C202.479 375 201.59 374.435 201.27 374.24C200.457 373.744 199.64 372.965 198.937 372.184C197.767 370.883 197.664 364.575 197.664 364.575L192.23 363.229Z" fill="#EFAC7F"/>
<path d="M204.973 268.011C204.973 268.011 207.026 279.641 205.678 287.266C204.33 294.892 197.86 365.569 197.86 365.569L190.669 365.973C190.669 365.973 189.162 336.45 189.432 332.344C189.702 328.238 191.835 321.368 191.835 321.368L191.12 297.531L200.194 266.216L204.973 268.011Z" fill="black"/>
<path d="M183.841 265.565C183.841 265.565 178.179 274.07 176.831 281.108C175.483 288.147 177.82 309.777 175.227 319C173.823 323.993 168.503 331.704 167.694 338.155C166.885 344.608 163.712 361.508 163.712 361.508L170.9 362.929L187.603 320.722L200.705 282.573L204.061 262.926L183.841 265.565Z" fill="#66676C"/>
<path d="M188.423 217.176C188.423 217.176 180.928 216.699 177.962 219.926C174.996 223.151 184.54 248.671 185.08 252.776C185.619 256.882 182.331 267.799 182.331 267.799C182.331 267.799 199.941 271.335 204.973 268.011C204.973 268.011 205.513 238.488 204.973 235.555C204.434 232.622 199.941 220.695 198.862 219.522C197.783 218.349 188.423 217.176 188.423 217.176Z" fill="#FFD481"/>
<path d="M190.919 207.179C190.919 207.179 190.88 207.4 190.81 207.775C190.476 209.573 189.189 215.54 188.32 217.18C187.269 219.162 191.917 225.485 196.39 224.713C197.723 224.484 195.265 218.904 195.383 218.313C195.609 217.182 195.916 215.638 196.229 214.056C196.407 213.163 196.586 212.258 196.754 211.407C197.232 208.99 197.623 207.013 197.623 207.013L190.919 207.179Z" fill="#EFAC7F"/>
<path d="M190.811 207.775C190.88 207.4 190.919 207.179 190.919 207.179L197.623 207.013C197.623 207.013 197.232 208.99 196.755 211.407C196.587 212.254 196.409 213.153 196.233 214.041C195.198 213.889 194.117 213.387 193.032 212.439C191.85 211.407 191.075 210.166 190.608 208.841C190.69 208.418 190.759 208.053 190.811 207.775Z" fill="#D19369"/>
<path d="M195.431 191.972C195.431 191.972 192.271 191.608 190.291 194.165C188.31 196.721 186.176 204.627 191.096 208.925C196.016 213.224 200.877 208.358 201.598 203.2C202.319 198.041 202.599 191.786 195.431 191.972Z" fill="#EFAC7F"/>
<path d="M203.054 203.123C202.466 204.263 201.481 204.894 200.851 204.532C200.223 204.171 200.189 202.955 200.776 201.815C201.364 200.676 202.35 200.045 202.978 200.406C203.608 200.767 203.641 201.984 203.054 203.123Z" fill="#EFAC7F"/>
<path d="M195.784 191.127C195.784 191.127 191.563 198.645 188.543 198.993C185.524 199.34 185.127 203.335 185.127 203.335C185.127 203.335 186.206 194.129 189.196 192.354C192.186 190.579 195.784 191.127 195.784 191.127Z" fill="#282828"/>
<path d="M167.869 374.793C163.953 375.506 161.346 373.219 159.99 371.506C158.995 373.446 158.509 376.34 159.241 377.933C159.886 379.336 161.771 379.296 163.255 379.351C164.824 379.409 166.038 378.539 166.817 377.175C167.181 376.539 167.556 375.746 167.869 374.793Z" fill="#66676C"/>
<path d="M201.267 374.239C196.956 375.342 193.768 374.591 191.985 373.874C191.525 375.175 190.915 376.806 191.239 377.747C191.635 378.899 192.198 379.16 192.696 379.173C196.635 379.276 207.123 379.417 210.126 379.456C210.546 379.461 210.777 378.972 210.507 378.651C209.763 377.763 201.589 374.434 201.267 374.239Z" fill="#66676C"/>
<path d="M189.335 200.882C189.581 202.217 189.087 203.441 188.232 203.616C187.377 203.791 186.485 202.851 186.24 201.516C185.994 200.181 186.488 198.957 187.343 198.782C188.198 198.606 189.09 199.547 189.335 200.882Z" fill="#EFAC7F"/>
<path d="M174.744 204.694C174.744 204.694 185.326 216.05 186.899 220.627C188.472 225.204 185.365 231.751 181.075 232.037C176.784 232.323 167.235 211.88 167.235 211.88L174.744 204.694Z" fill="#FFD481"/>
<path d="M186.761 61.1207L174.811 63.723C171.945 64.3471 169.115 62.5294 168.491 59.663L167.377 54.5485C166.753 51.682 168.57 48.8523 171.437 48.2282L183.387 45.6261C186.253 45.002 189.083 46.8197 189.707 49.6859L190.821 54.8007C191.445 57.6671 189.627 60.4966 186.761 61.1207Z" fill="#FAAD19"/>
<path d="M168.601 56.8809L163.481 65.1555L171.337 61.7743L168.601 56.8809Z" fill="#FAAD19"/>
<path d="M174.383 54.5729L176.376 54.0859C176.376 54.0859 178.472 51.6346 178.399 50.9514C178.326 50.2685 177.595 48.9537 177.946 48.6886C178.297 48.4238 179.094 48.0974 179.816 48.8603C180.34 49.414 180.551 51.8199 180.821 51.9229C180.99 51.9875 182.143 51.7396 182.983 51.5452C183.535 51.417 184.111 51.6066 184.48 52.0365L184.482 52.0375C184.731 52.3281 184.743 52.7537 184.511 53.0579L184.149 53.5315L184.605 53.9188C184.945 54.2074 184.988 54.7158 184.702 55.0574L184.41 55.4058L184.714 55.6259C185.104 55.9099 185.162 56.4699 184.837 56.8271L184.573 57.1172L184.64 57.1932C184.917 57.5093 184.906 57.9846 184.615 58.2881L184.348 58.5673L179.041 59.8639C178.543 59.9854 178.027 60.0041 177.522 59.9185L175.58 60.0662C175.371 60.0818 175.182 59.9427 175.136 59.7387L174.072 55.0771C174.02 54.8527 174.159 54.6277 174.383 54.5729Z" fill="white"/>
<path d="M224.174 0.53842C234.879 2.53208 242.565 9.47945 241.34 16.0555C240.728 19.3437 238.004 21.9165 234.095 23.4181L236.634 33.9231L228.895 24.683C226.069 25.0356 222.951 24.9513 219.739 24.3532C209.033 22.3598 201.348 15.4125 202.573 8.83644C203.797 2.25993 213.468 -1.45524 224.174 0.53842Z" fill="#62BDF3"/>
<path d="M229.076 14.9899C227.433 18.4112 223.328 19.8524 219.907 18.2089C216.487 16.5657 215.046 12.46 216.689 9.03866C218.332 5.61761 222.437 4.17608 225.857 5.81958C229.277 7.46283 230.719 11.5683 229.076 14.9899Z" fill="#3797DB"/>
<path d="M219.1 11.4044C218.221 13.2337 218.992 15.4286 220.821 16.3074C222.65 17.186 224.844 16.4154 225.722 14.5864L219.1 11.4044Z" fill="#EFEFEF"/>
<path d="M380.673 198.159L378.305 198.4L377.497 194.632L373.991 194.557L372.926 191.836L371.549 192.375L372.973 196.014L376.296 196.086L377.136 200.005L380.699 199.643L380.673 198.159Z" fill="#FAAD19"/>
<path d="M367.022 138.341L361.482 135.914L360.223 139.74L358.39 139.137L360.312 133.295L365.819 135.707L367.224 131.182L372.293 133.294L374.376 128.842L376.124 129.66L373.258 135.787L368.439 133.778L367.022 138.341Z" fill="#5EC8D8"/>
</svg>
