<svg width="202" height="164" viewBox="0 0 202 164" fill="none" xmlns="http://www.w3.org/2000/svg">
<path fill-rule="evenodd" clip-rule="evenodd" d="M41.4705 32.8112C40.3482 32.2878 39.0141 32.7734 38.4907 33.8957L36.4475 38.2775C35.9241 39.3998 36.4097 40.7339 37.5321 41.2573L41.2065 42.9707L37.618 50.6663C26.7914 49.5287 15.9564 55.2639 11.0937 65.692C4.96702 78.8307 10.6412 94.4437 23.7674 100.565C36.8936 106.685 52.5011 100.996 58.6278 87.8575C63.4416 77.5342 60.9702 65.6834 53.323 58.1096L56.9575 50.3155L59.9068 51.6908C61.0291 52.2141 62.3632 51.7285 62.8866 50.6062L64.9298 46.2245C65.4531 45.1021 64.9676 43.768 63.8452 43.2447L41.4705 32.8112Z" fill="#5EC8D8"/>
<mask id="mask0" mask-type="alpha" maskUnits="userSpaceOnUse" x="2" y="22" width="76" height="87">
<path fill-rule="evenodd" clip-rule="evenodd" d="M43.3261 27.9006C43.0692 27.7808 42.7638 27.8919 42.644 28.1488L39.3946 35.1173C39.2748 35.3742 39.3859 35.6796 39.6428 35.7994L63.4383 46.8954C63.6952 47.0152 64.0006 46.904 64.1204 46.6471L67.3698 39.6787C67.4896 39.4218 67.3785 39.1164 67.1216 38.9966L43.3261 27.9006ZM41.514 43.2467L56.2443 50.1155L52.1607 58.8729C59.3123 65.9559 61.6236 77.0387 57.1217 86.693C51.392 98.9804 36.7958 104.301 24.5202 98.5766C12.2447 92.8524 6.93815 78.2512 12.6678 65.9639C17.2154 56.2115 27.3484 50.8479 37.4734 51.9119L41.514 43.2467Z" fill="#C4C4C4"/>
</mask>
<g mask="url(#mask0)">
<mask id="mask1" mask-type="alpha" maskUnits="userSpaceOnUse" x="-4" y="49" width="72" height="67">
<path d="M21.2783 52.6749C18.9193 51.5323 14.1822 53.2347 14.1822 53.2347L-3.46785 89.6786L48.1226 115.028L65.0573 77.8739C65.0573 77.8739 61.7512 72.2761 52.9331 68.0054C44.1149 63.7348 40.5875 66.023 33.4351 62.559C26.2826 59.095 24.0187 54.002 21.2783 52.6749Z" fill="#C4C4C4"/>
</mask>
<g mask="url(#mask1)">
<g filter="url(#filter0_f)">
<path d="M43.972 79.5851C48.0823 73.7524 50.9089 67.081 53.4753 60.4529C53.1958 60.1516 53.1888 59.6543 52.8692 59.3465C52.3042 58.8024 51.6355 58.5239 50.9085 58.2943C50.0593 58.0262 49.2734 57.4539 48.4138 57.1954C47.6406 56.9629 46.9175 56.9134 46.1453 56.5986C45.081 56.1647 43.3294 55.246 42.1122 55.4569C41.3365 55.5913 40.7993 56.3392 40.3202 56.8963C39.3458 58.029 38.2964 59.1421 37.3884 60.327C34.3219 64.3288 31.466 68.1723 27.5307 71.3601C25.0113 73.4009 22.6598 75.6432 20.1532 77.6952C18.8271 78.7807 17.3226 79.0874 15.676 78.8109C12.8479 78.3361 10.4013 76.7002 7.73756 75.7476C5.40094 74.912 2.9436 73.9827 0.44522 73.825C-1.45588 73.705 -3.99494 74.4272 -4.60967 76.4714C-5.21178 78.4736 -2.60453 80.7217 -1.56776 82.0686C-0.392151 83.596 1.85864 84.6019 3.44963 85.723C4.56165 86.5067 5.55506 87.4168 6.632 88.2029C10.0638 90.7079 13.6867 92.9371 17.1633 95.3871C18.8505 96.576 20.5136 98.1334 22.5288 98.6409C23.4812 98.8808 24.7327 98.6579 25.7103 98.6157C26.1828 98.5952 27.5397 98.7713 27.8559 98.4141C28.3138 97.8968 29.0961 97.4864 29.6128 96.9499C30.15 96.392 30.6036 95.8618 31.0659 95.2058C32.9357 92.5525 34.0862 89.0423 36.3166 86.726C36.5383 86.4958 36.7069 86.191 36.8902 85.9308C37.1798 85.5199 37.782 85.4239 38.1727 85.1209C39.8114 83.8503 40.8874 82.0438 42.5646 80.8341C43.2247 80.358 43.4596 80.3123 43.972 79.5851Z" fill="#FE9977"/>
<path d="M23.0633 86.9781C23.343 88.593 22.2227 88.4087 20.908 88.0849C20.583 88.0357 19.9353 88.3186 19.4949 88.3949C19.1646 88.4521 18.3322 88.4678 18.0105 88.2935C16.6365 87.5486 14.9938 88.1116 13.6302 88.4573C11.8376 88.9118 10.0767 89.3421 8.4753 90.3119C6.7963 91.3287 5.51572 93.1015 3.8725 94.0836C1.14514 95.7137 0.295067 99.3973 -3.42096 98.8349C-5.9126 98.4577 -8.23676 97.3881 -10.1269 95.7345C-11.9208 94.1651 -14.5712 92.894 -15.0262 90.2677C-15.4256 87.9619 -13.3163 85.0354 -11.1094 84.276C-9.85849 83.8455 -8.56982 83.8384 -7.28568 83.581C-4.41511 83.0056 -2.79154 80.5802 -0.828921 78.6569C0.966066 76.8979 2.16496 74.7005 3.9918 73.0383C5.00079 72.1202 7.87958 71.9022 9.00058 72.6922C9.64777 73.1483 8.94259 73.7948 9.3599 74.3902C9.95816 75.2437 11.15 75.9573 11.9821 76.5437C13.5612 77.6565 14.7791 79.2649 16.3535 80.3744C18.3521 81.7828 20.1364 83.4103 21.925 85.0647C22.5173 85.6125 22.9271 86.1923 23.0633 86.9781Z" fill="#FF7194"/>
<path d="M60.81 63.9875C60.8009 65.0816 59.7923 66.0883 58.9104 66.8812C58.7697 68.0462 59.1959 69.2389 58.7566 70.2921C58.2429 71.5234 58.1647 73.2507 59.3298 74.0717C60.771 75.0873 65.6499 76.4948 67.4447 76.9932C68.4416 77.27 69.4223 78.2618 70.2603 78.8524C70.8136 79.2423 71.6782 79.3158 71.575 80.2789C71.4254 81.6741 69.5358 83.8729 68.4892 84.7169C67.7063 85.3482 63.4296 86.4911 62.6209 87.1432C61.9968 87.6465 61.3358 88.3706 60.6697 88.7688C59.9821 89.1797 59.2695 90.1569 58.3459 89.9373C57.4682 89.7287 56.5087 89.6918 55.655 89.2218C53.5825 88.081 51.4326 85.9934 49.0202 85.6854C46.3328 85.3423 43.4635 84.6596 40.7899 85.1227C38.5033 85.5188 37.1609 86.705 34.8024 85.7932C32.8194 85.0266 29.264 83.7061 28.969 81.2379C28.5299 77.5635 32.8724 75.4134 35.2687 73.6192C38.0939 71.5039 40.7898 69.3999 42.4858 66.2164C43.3714 64.5543 44.7214 62.9511 45.3605 61.1713C46.261 58.6632 49.2572 55.9887 52.1163 56.9858C54.4886 57.8132 58.3271 58.3799 59.7646 60.6808C60.4319 61.7491 60.8206 62.7142 60.81 63.9875Z" fill="#A7D9FE"/>
<path d="M46.1011 84.7856C47.9582 86.0943 47.1057 88.488 46.3501 90.1793C46.043 90.5655 45.6266 90.9091 45.2177 91.1645C44.8314 91.4059 44.7571 91.9602 44.3318 92.1655C43.5212 92.5569 43.1264 93.5024 42.4052 93.9335C41.6829 94.3652 40.7944 95.1629 40.1872 95.7601C39.0666 96.8622 38.7528 98.4856 37.876 99.7298C36.6723 101.438 35.162 104.833 32.4842 102.945C30.3016 101.407 27.4028 99.8081 25.9952 97.428C25.3614 96.3564 24.5282 95.3615 23.8132 94.3345C22.8696 92.9791 22.2742 91.3267 21.6618 89.8177C20.9041 87.9511 21.0258 86.5454 21.1703 84.5815C21.2666 83.2732 21.9494 82.1533 22.3576 80.9451C22.7045 79.9186 23.212 78.4272 24.02 77.699C24.5203 77.2482 25.0507 76.8115 25.5388 76.3521C25.8024 76.1039 25.9789 75.5984 26.3425 75.4876C27.1754 75.2337 27.8482 75.9236 28.4747 76.365C30.4979 77.7908 33.4475 78.5159 35.7595 79.3732C39.4226 80.7316 42.9097 82.5366 46.1011 84.7856Z" fill="#FFE483"/>
<path d="M46.1489 57.6074C46.7637 58.751 46.4725 59.5245 46.1874 60.7463C45.7809 61.3231 45.6513 61.7929 45.2948 62.3677C44.9949 62.8512 44.7381 63.5125 44.3499 64.0634C43.5806 65.155 42.9456 66.411 42.1556 67.532C41.3544 68.669 41.1818 70.8016 41.4127 72.1346C41.637 73.4299 42.4273 74.552 42.7165 75.804C42.8803 76.5129 43.8885 79.0236 42.501 79.2639C41.4385 79.448 39.6939 79.6049 38.687 79.2156C37.2983 78.6788 36.4478 78.9461 35.3405 79.6079C34.1705 80.3071 32.5479 81.5808 31.1546 80.659C27.3505 78.1423 23.0733 76.4209 20.9982 71.9875C20.1648 70.2071 18.5402 67.2365 19.2624 65.1659C20.3984 61.9084 21.9464 58.6038 24.3259 56.0093C25.3398 54.9037 26.1753 54.0532 27.4659 53.2488C28.5015 52.6032 29.3847 52.4038 30.5017 51.9569C31.9835 51.3641 33.8536 51.2785 35.4063 51.0095C36.0903 50.891 36.502 50.9852 37.1179 51.3405C39.0364 52.4471 40.9348 53.544 42.7491 54.8226C43.7332 55.5161 45.5805 56.55 46.1489 57.6074Z" fill="#7BFCD6"/>
<path d="M35.1091 82.9363C35.0419 83.9639 34.1675 84.8246 33.6029 85.6257C32.9761 85.5308 33.9021 86.475 33.8184 86.9167C33.6429 87.843 32.1827 89.2082 31.5134 89.7933C30.2745 90.8762 28.9505 92.0504 27.6333 93.0324C26.5145 93.8665 25.7318 94.5408 24.5391 95.1167C23.5176 95.6099 22.9129 96.8921 22.2542 97.8268C21.4138 99.0194 20.426 100.455 18.9019 100.632C17.3285 100.816 16.6701 100.569 15.2293 99.989C12.8647 99.0369 10.7418 97.5594 8.42599 96.5144C6.54005 95.6634 4.23836 93.9644 2.99617 92.3129C2.29816 91.3849 1.5657 90.3014 1.22178 89.1732C0.980471 88.3816 1.43734 87.9802 1.87683 87.3566L6.8743 80.265C8.73323 77.6271 10.3204 74.8518 12.0963 72.1647C13.3697 70.2381 15.3982 66.1582 18.1494 66.0393C20.3598 65.9438 21.3823 68.2146 22.2404 69.9919C24.0281 73.6943 26.9892 75.6633 30.8595 77.0799C32.523 77.6888 34.2325 78.0148 34.7782 79.897C35.0138 80.7097 35.1649 82.0832 35.1091 82.9363Z" fill="#A78FFD"/>
</g>
</g>
<mask id="mask2" mask-type="alpha" maskUnits="userSpaceOnUse" x="-11" y="50" width="74" height="67">
<path d="M58.6275 76.0632C60.9647 77.5305 62.1912 82.5477 62.1912 82.5477L40.6522 116.837L-10.7743 84.9357L11.7885 50.9031C11.7885 50.9031 18.5305 50.8889 27.2667 56.3738C36.0029 61.8587 36.031 66.1234 43.1171 70.5723C50.2031 75.0212 55.9126 74.3587 58.6275 76.0632Z" fill="#C4C4C4"/>
</mask>
<g mask="url(#mask2)">
<g filter="url(#filter1_f)">
<path d="M-6.4477 60.8525C-2.66649 54.8013 2.45449 49.6508 7.64487 44.7621C8.04906 44.9141 8.52317 44.7358 8.95045 44.9232C9.70593 45.2546 10.2537 45.7826 10.7799 46.384C11.3945 47.0865 12.2704 47.616 12.8802 48.3318C13.4288 48.9756 13.7827 49.6403 14.4088 50.2526C15.2718 51.0966 16.8859 52.4095 17.2029 53.6376C17.4049 54.4203 16.9243 55.2057 16.5999 55.8655C15.9403 57.207 15.3312 58.6121 14.5941 59.9103C12.1045 64.2948 9.67525 68.4215 8.32576 73.324C7.46181 76.4625 6.33557 79.5174 5.45565 82.648C4.99015 84.3042 5.33827 85.8393 6.29933 87.2919C7.94997 89.7866 10.5387 91.4892 12.5722 93.6511C14.356 95.5475 16.2798 97.523 17.4899 99.8243C18.4107 101.575 18.8044 104.242 17.1286 105.583C15.4873 106.896 12.2503 105.269 10.5339 104.791C8.58763 104.248 6.67895 102.496 4.94117 101.41C3.72656 100.652 2.44243 100.052 1.24039 99.3267C-2.59005 97.0166 -6.24037 94.4234 -10.0377 92.0506C-11.8805 90.899 -14.0622 89.9072 -15.3987 88.1924C-16.0303 87.382 -16.3504 86.117 -16.7255 85.1779C-16.9067 84.724 -17.6497 83.5078 -17.4455 83.0763C-17.1497 82.4515 -17.093 81.5599 -16.804 80.8724C-16.5035 80.1575 -16.1938 79.5319 -15.7685 78.8513C-14.0484 76.0986 -11.211 73.7067 -9.9634 70.7387C-9.8394 70.4437 -9.62212 70.1711 -9.45342 69.9012C-9.18707 69.4749 -9.35178 68.8703 -9.23062 68.3886C-8.72248 66.3684 -7.46766 64.6803 -7.03357 62.6463C-6.86272 61.8458 -6.91913 61.6069 -6.4477 60.8525Z" fill="#FE9977"/>
<path d="M9.60004 43.9569C7.95119 44.2931 8.60151 45.2827 9.46644 46.4041C9.65108 46.6929 9.658 47.4098 9.77271 47.8542C9.85874 48.1874 10.1973 48.9796 10.499 49.2186C11.7881 50.2394 11.9521 52.0003 12.2035 53.4169C12.534 55.2792 12.8739 57.1024 12.6349 58.9756C12.3844 60.9396 11.2483 62.8084 11.0155 64.7257C10.629 67.9079 7.49971 70.0806 9.61036 73.3814C11.0256 75.5947 13.0258 77.3923 15.395 78.5627C17.6436 79.6736 19.9733 81.7045 22.6548 81.1577C25.009 80.6776 26.8863 77.5971 26.6689 75.2302C26.5457 73.8885 26.0052 72.6687 25.7039 71.36C25.0304 68.4346 26.6391 65.9992 27.6281 63.4303C28.5326 61.0808 30.1055 59.1313 30.9048 56.7877C31.3463 55.4933 30.3306 52.693 29.1062 51.9279C28.3993 51.4862 28.0861 52.3927 27.3449 52.2199C26.2822 51.9721 25.1 51.1117 24.1912 50.5438C22.4664 49.466 20.4254 48.9137 18.7057 47.8391C16.5227 46.475 14.2232 45.3948 11.8962 44.3205C11.1257 43.9648 10.4024 43.7932 9.60004 43.9569Z" fill="#FF7194"/>
<path d="M27.7274 75.0481C26.6947 75.4635 26.169 76.7905 25.7923 77.9183C24.7482 78.4844 23.4371 78.5253 22.6258 79.3319C21.6773 80.2749 20.0739 80.991 18.8013 80.1958C17.2272 79.2122 13.8221 75.1271 12.588 73.6172C11.9024 72.7785 10.5463 72.2209 9.63097 71.6489C9.02663 71.2713 8.58996 70.4819 7.7212 70.9376C6.46282 71.5976 5.18174 74.2 4.82645 75.5024C4.56069 76.4767 5.29358 80.9412 5.01905 81.9476C4.80717 82.7243 4.4017 83.6178 4.3073 84.3951C4.20987 85.1973 3.58655 86.2337 4.18673 87.0246C4.757 87.776 5.1993 88.6685 6.0071 89.3002C7.96795 90.8336 10.8587 92.088 12.1747 94.2522C13.6407 96.663 15.5058 99.1194 16.2021 101.817C16.7976 104.124 16.2437 105.833 18.109 107.722C19.6772 109.31 22.4379 112.177 24.9017 111.538C28.5695 110.586 28.7631 105.685 29.4456 102.755C30.2504 99.2996 31.0993 95.9708 33.3954 93.1851C34.5943 91.7306 35.5402 89.8593 36.9551 88.5939C38.9492 86.8107 40.2111 82.9861 38.0525 80.6563C36.2613 78.7232 34.0947 75.3082 31.3043 74.806C30.0089 74.5729 28.9294 74.5646 27.7274 75.0481Z" fill="#A7D9FE"/>
<path d="M34.8325 53.8189C32.8041 52.5513 30.8981 54.2466 29.6164 55.5892C29.3809 56.0229 29.2321 56.544 29.1637 57.0251C29.099 57.4799 28.6054 57.7561 28.5914 58.2342C28.5648 59.1453 27.8365 59.8698 27.7343 60.7114C27.6319 61.5541 27.2533 62.6899 26.9453 63.4855C26.3768 64.9538 24.972 65.8539 24.1654 67.1447C23.058 68.9168 20.4829 71.6056 23.4077 73.4332C25.7917 74.9229 28.5377 77.0664 31.3904 77.5109C32.6749 77.7111 33.9713 78.1282 35.2479 78.4216C36.9327 78.8089 38.7511 78.7569 40.4408 78.7743C42.5311 78.7959 43.8113 78.1583 45.6107 77.2915C46.8095 76.7141 47.5806 75.6528 48.5521 74.8179C49.3774 74.1086 50.575 73.0747 50.9219 72.0407C51.1366 71.4006 51.3252 70.7371 51.5532 70.1053C51.6764 69.7641 52.0805 69.4093 52.0311 69.0247C51.918 68.1436 50.9787 67.7646 50.2945 67.337C48.0845 65.9561 46.1453 63.4397 44.3513 61.5746C41.5091 58.6197 38.3184 55.9971 34.8325 53.8189Z" fill="#FFE483"/>
<path d="M53.5399 68.0531C52.1953 67.8976 51.5861 68.4603 50.5495 69.1839C50.1755 69.7824 49.7854 70.0794 49.3922 70.6299C49.0613 71.0929 48.5439 71.5814 48.1867 72.153C47.479 73.2854 46.5586 74.3523 45.8319 75.5153C45.0948 76.6949 43.1475 77.6509 41.7865 77.9284C40.4639 78.1981 39.0652 77.8689 37.7562 78.0613C37.015 78.1702 34.2081 78.1514 34.5695 79.5514C34.8462 80.6234 35.4382 82.3296 36.2345 83.136C37.3328 84.2481 37.4406 85.1507 37.2837 86.4428C37.1179 87.8079 36.6001 89.8141 38.065 90.7874C42.0646 93.4448 45.5116 96.8448 50.5932 97.1564C52.6338 97.2815 56.1382 97.7115 57.7935 96.2595C60.3975 93.9752 62.8714 91.2843 64.3194 88.072C64.9364 86.7032 65.3874 85.5977 65.6017 84.0796C65.7737 82.8614 65.5877 81.953 65.5368 80.7317C65.4694 79.1117 64.7565 77.3134 64.3521 75.7468C64.174 75.0567 63.91 74.7028 63.3118 74.2531C61.4488 72.8525 59.6035 71.4672 57.6218 70.2289C56.5469 69.5572 54.783 68.1969 53.5399 68.0531Z" fill="#7BFCD6"/>
<path d="M35.1729 88.7388C34.2279 89.1844 33.7837 90.3304 33.2643 91.1615C33.6204 91.7184 32.3326 91.1947 31.9497 91.438C31.1465 91.9482 30.4729 93.8351 30.2028 94.6848C29.7027 96.2577 29.1524 97.9449 28.7812 99.5543C28.4659 100.921 28.1592 101.911 28.12 103.252C28.0864 104.4 27.1283 105.448 26.5223 106.418C25.7492 107.655 24.8087 109.122 25.2875 110.627C25.7818 112.182 26.2948 112.712 27.4562 113.857C29.3622 115.737 31.6635 117.193 33.6368 118.991C35.2438 120.456 37.8308 121.999 39.9229 122.558C41.0986 122.872 42.4361 123.161 43.6511 123.066C44.5036 123 44.6899 122.419 45.0942 121.772L49.6916 114.415C51.4017 111.678 53.3574 109.147 55.1493 106.471C56.4341 104.551 59.4384 101.118 58.3831 98.4754C57.5351 96.3521 54.9494 96.2306 52.9011 96.0809C48.6342 95.7691 45.5115 93.7042 42.5261 90.5753C41.2428 89.2303 40.2082 87.7368 38.1931 87.9213C37.3231 88.0009 35.9576 88.3689 35.1729 88.7388Z" fill="#A78FFD"/>
</g>
</g>
</g>
<rect x="44.0605" y="49.5223" width="1.25373" height="2.50746" rx="0.626866" transform="rotate(25 44.0605 49.5223)" fill="#A7D9FE"/>
<rect x="42.1523" y="53.613" width="1.25373" height="2.50746" rx="0.626866" transform="rotate(25 42.1523 53.613)" fill="#A7D9FE"/>
<rect x="39.8125" y="52.1063" width="1.25373" height="2.50746" rx="0.626866" transform="rotate(-65 39.8125 52.1063)" fill="#A7D9FE"/>
<rect x="43.6758" y="53.9079" width="1.25373" height="2.50746" rx="0.626866" transform="rotate(-65 43.6758 53.9079)" fill="#A7D9FE"/>
<rect x="78.4082" y="17.1055" width="3.07499" height="6.14998" rx="1.53749" transform="rotate(25 78.4082 17.1055)" fill="#FFE483"/>
<rect x="73.7285" y="27.138" width="3.07499" height="6.14998" rx="1.53749" transform="rotate(25 73.7285 27.138)" fill="#FFE483"/>
<rect x="67.9883" y="23.4431" width="3.07499" height="6.14998" rx="1.53749" transform="rotate(-65 67.9883 23.4431)" fill="#FFE483"/>
<rect x="77.4629" y="27.8618" width="3.07499" height="6.14998" rx="1.53749" transform="rotate(-65 77.4629 27.8618)" fill="#FFE483"/>
<rect x="179.67" y="85.8594" width="2.35013" height="4.70025" rx="1.17506" transform="rotate(-21.3875 179.67 85.8594)" fill="#5EC8D8"/>
<rect x="182.755" y="93.7375" width="2.35013" height="4.70025" rx="1.17506" transform="rotate(-21.3875 182.755 93.7375)" fill="#5EC8D8"/>
<rect x="177.684" y="94.9665" width="2.35013" height="4.70025" rx="1.17506" transform="rotate(-111.387 177.684 94.9665)" fill="#5EC8D8"/>
<rect x="185.124" y="92.0529" width="2.35013" height="4.70025" rx="1.17506" transform="rotate(-111.387 185.124 92.0529)" fill="#5EC8D8"/>
<path opacity="0.8" d="M12.5758 82.3438C11.2914 78.398 12.4673 71.479 14.9848 72.0558C17.5023 72.6326 15.3026 77.777 16.168 80.9007C17.0334 84.0244 20.4164 87.7249 18.052 88.8117C15.6875 89.8985 13.8602 86.2897 12.5758 82.3438Z" fill="white"/>
<path opacity="0.8" d="M48.8526 95.0925C51.2375 93.6113 53.646 89.5194 52.0922 88.7201C50.5384 87.9208 49.5522 92.0368 47.6236 92.7797C45.695 93.5225 43.4298 93.3261 43.5404 95.2578C43.6509 97.1895 46.4677 96.5736 48.8526 95.0925Z" fill="white"/>
<circle cx="25.7219" cy="70.229" r="2.7058" transform="rotate(25 25.7219 70.229)" fill="#7BFCD6"/>
<circle cx="34.0693" cy="94.1576" r="1.1606" transform="rotate(25 34.0693 94.1576)" stroke="#FF7194" stroke-width="0.444719"/>
<circle cx="48.9453" cy="85.3044" r="1.1606" transform="rotate(25 48.9453 85.3044)" stroke="#FFE483" stroke-width="0.444719"/>
<circle cx="27.831" cy="82.4919" r="1.1606" transform="rotate(25 27.831 82.4919)" stroke="#9BADF2" stroke-width="0.444719"/>
<circle cx="49.5713" cy="29.8184" r="2.44047" transform="rotate(25 49.5713 29.8184)" stroke="#FF7194" stroke-width="2"/>
<path d="M85.9843 63.2626V59.2946H93.9843V54.4306H85.9843V50.7186H94.7843V45.7906H80.8643V68.1906H94.9443V63.2626H85.9843ZM120.013 56.9906C120.013 50.3986 114.797 45.3426 108.365 45.3426C101.933 45.3426 96.7168 50.3986 96.7168 56.9906C96.7168 63.5826 101.933 68.6386 108.365 68.6386C110.253 68.6386 112.045 68.1906 113.613 67.4226L116.013 69.9506L119.693 66.6866L117.453 64.3186C119.053 62.3346 120.013 59.8066 120.013 56.9906ZM108.365 63.6466C104.717 63.6466 101.837 60.9906 101.837 56.9906C101.837 52.9906 104.717 50.3346 108.365 50.3346C112.013 50.3346 114.893 52.9906 114.893 56.9906C114.893 58.3666 114.541 59.5826 113.965 60.6066L110.381 56.7986L106.701 60.0626L109.933 63.4866C109.421 63.5826 108.909 63.6466 108.365 63.6466ZM131.376 68.6386C136.304 68.6386 140.016 65.7586 140.016 60.9586V45.7906H134.896V60.5106C134.896 62.2066 134.096 63.6466 131.376 63.6466C128.656 63.6466 127.856 62.2066 127.856 60.5106V45.7906H122.736V60.9586C122.736 65.7586 126.448 68.6386 131.376 68.6386ZM143.708 45.7906V68.1906H148.828V45.7906H143.708ZM167.717 45.7906H151.077V50.7186H156.837V68.1906H161.957V50.7186H167.717V45.7906ZM188.198 45.7906H182.374L178.118 54.4306L173.862 45.7906H168.038L175.558 59.5826V68.1906H180.678V59.5826L188.198 45.7906ZM81.4083 100.191H83.0083V76.8306H81.4083V100.191ZM102.02 84.1906V87.8066C100.676 85.4066 98.2116 83.8386 95.1396 83.8386C90.5956 83.8386 86.8516 87.4546 86.8516 92.1906C86.8516 96.9266 90.5956 100.543 95.1396 100.543C98.2116 100.543 100.676 98.9746 102.02 96.5746V100.191H103.652V84.1906H102.02ZM95.2676 99.0066C91.4596 99.0066 88.4836 95.9986 88.4836 92.1906C88.4836 88.3826 91.4596 85.3746 95.2676 85.3746C99.0756 85.3746 102.02 88.3826 102.02 92.1906C102.02 95.9986 99.0756 99.0066 95.2676 99.0066ZM117.045 83.8386C113.941 83.8386 111.477 85.4386 110.165 87.9026V77.7906H108.565V100.191H110.165V96.4786C111.477 98.9426 113.941 100.543 117.045 100.543C121.621 100.543 125.333 96.9266 125.333 92.1906C125.333 87.4546 121.621 83.8386 117.045 83.8386ZM116.949 99.0066C113.141 99.0066 110.165 95.9986 110.165 92.1906C110.165 88.3826 113.141 85.3746 116.949 85.3746C120.757 85.3746 123.733 88.3826 123.733 92.1906C123.733 95.9986 120.757 99.0066 116.949 99.0066Z" fill="black"/>
<defs>
<filter id="filter0_f" x="-19.5667" y="41.9288" width="101.472" height="66.063" filterUnits="userSpaceOnUse" color-interpolation-filters="sRGB">
<feFlood flood-opacity="0" result="BackgroundImageFix"/>
<feBlend mode="normal" in="SourceGraphic" in2="BackgroundImageFix" result="shape"/>
<feGaussianBlur stdDeviation="2.24576" result="effect1_foregroundBlur"/>
</filter>
<filter id="filter1_f" x="-21.972" y="39.403" width="97.0757" height="88.1732" filterUnits="userSpaceOnUse" color-interpolation-filters="sRGB">
<feFlood flood-opacity="0" result="BackgroundImageFix"/>
<feBlend mode="normal" in="SourceGraphic" in2="BackgroundImageFix" result="shape"/>
<feGaussianBlur stdDeviation="2.24576" result="effect1_foregroundBlur"/>
</filter>
</defs>
</svg>
