<svg width="52" height="52" viewBox="0 0 52 52" fill="none" xmlns="http://www.w3.org/2000/svg">
<rect width="52" height="52" rx="26" fill="#DF4931"/>
<path d="M26.2121 36.5C32.3937 36.5 36.5 32.2468 36.5 26.2436C36.5 25.5562 36.4272 25.0256 36.3257 24.4964H26.2135V28.1056H32.2937C32.0452 29.6386 30.4527 32.6318 26.2135 32.6318C22.5614 32.6318 19.5792 29.6666 19.5792 26C19.5792 22.3334 22.56 19.3668 26.2135 19.3668C28.3031 19.3668 29.6914 20.2404 30.4812 20.9852L33.3892 18.2496C31.5167 16.5318 29.1058 15.5 26.2121 15.5C20.2933 15.5 15.5 20.1984 15.5 26C15.5 31.8016 20.2933 36.5 26.2121 36.5Z" fill="white"/>
</svg>
