<svg width="13" height="15" viewBox="0 0 13 15" fill="none" xmlns="http://www.w3.org/2000/svg">
<path d="M3.67917 10.257C3.42458 10.0193 3.5573 10.0863 2.94323 9.93293C2.66462 9.8632 2.4197 9.72922 2.19821 9.56871L0.869015 12.6104C0.740402 12.9049 0.980636 13.2248 1.32107 13.2128L2.86472 13.1578L3.92644 14.2046C4.16081 14.4353 4.57214 14.3634 4.70075 14.0689L6.22566 10.5793C5.90808 10.7445 5.55564 10.8413 5.19118 10.8413C4.61989 10.8413 4.08318 10.6337 3.67917 10.257V10.257ZM12.0487 12.6104L10.7195 9.56871C10.498 9.72949 10.2531 9.8632 9.97448 9.93293C9.3572 10.0871 9.49255 10.0199 9.23855 10.257C8.83454 10.6337 8.29753 10.8413 7.72624 10.8413C7.36179 10.8413 7.00935 10.7442 6.69177 10.5793L8.21667 14.0689C8.34528 14.3634 8.75691 14.4353 8.99099 14.2046L10.053 13.1578L11.5967 13.2128C11.9371 13.2248 12.1773 12.9046 12.0487 12.6104V12.6104ZM8.53894 9.63816C8.98659 9.21297 9.03786 9.24961 9.67536 9.08746C10.0823 8.98382 10.4005 8.68168 10.5094 8.29504C10.7286 7.51847 10.6717 7.61226 11.2697 7.04406C11.5676 6.76105 11.684 6.34843 11.575 5.96179C11.3561 5.18578 11.3558 5.29406 11.575 4.51722C11.684 4.13058 11.5676 3.71797 11.2697 3.43496C10.6717 2.86675 10.7286 2.96027 10.5094 2.18398C10.4005 1.79734 10.0823 1.49519 9.67536 1.39156C8.85857 1.18347 8.957 1.23789 8.35847 0.66941C8.06052 0.386402 7.62605 0.27566 7.21911 0.379293C6.40261 0.587105 6.51657 0.587379 5.6986 0.379293C5.29167 0.27566 4.8572 0.386129 4.55925 0.66941C3.9613 1.23761 4.05974 1.18347 3.24265 1.39156C2.83571 1.49519 2.51755 1.79734 2.40857 2.18398C2.18972 2.96027 2.24626 2.86675 1.64831 3.43496C1.35036 3.71797 1.23376 4.13058 1.34304 4.51722C1.56189 5.29269 1.56218 5.18441 1.34304 5.96152C1.23405 6.34816 1.35036 6.76078 1.64831 7.04406C2.24626 7.61226 2.18943 7.51847 2.40857 8.29504C2.51755 8.68168 2.83571 8.98382 3.24265 9.08746C3.89831 9.25425 3.94724 9.228 4.37878 9.63816C4.76638 10.0065 5.37019 10.0724 5.83601 9.7973C6.02228 9.68693 6.23836 9.62832 6.45901 9.62832C6.67965 9.62832 6.89573 9.68693 7.082 9.7973C7.54753 10.0724 8.15134 10.0065 8.53894 9.63816ZM3.69499 5.15269C3.69499 3.70265 4.93249 2.52714 6.45886 2.52714C7.98523 2.52714 9.22273 3.70265 9.22273 5.15269C9.22273 6.60273 7.98523 7.77824 6.45886 7.77824C4.93249 7.77824 3.69499 6.60273 3.69499 5.15269V5.15269Z" fill="white"/>
</svg>
